<?xml version="1.0" standalone="no"?>
<!DOCTYPE svg PUBLIC "-//W3C//DTD SVG 20010904//EN"
 "http://www.w3.org/TR/2001/REC-SVG-20010904/DTD/svg10.dtd">
<svg version="1.0" xmlns="http://www.w3.org/2000/svg"
 width="541.000000pt" height="541.000000pt" viewBox="0 0 541.000000 541.000000"
 preserveAspectRatio="xMidYMid meet">
<metadata>
Created by potrace 1.14, written by Peter Selinger 2001-2017
</metadata>
<g transform="translate(0.000000,541.000000) scale(0.100000,-0.100000)"
fill="#000000" stroke="none">
<path d="M0 2705 l0 -2705 1420 0 1420 0 0 44 c0 53 14 67 28 29 6 -16 11 -22
11 -14 1 7 13 25 28 39 21 19 24 26 13 30 -40 10 -41 11 -20 32 30 30 27 54
-7 46 -38 -9 -55 -34 -47 -68 3 -17 1 -28 -5 -28 -18 0 -33 39 -34 91 -1 27
-5 49 -9 49 -5 0 -8 14 -8 31 0 26 3 30 23 27 17 -2 23 3 25 20 2 13 -2 30 -9
39 -8 8 -14 40 -16 71 -1 30 -6 58 -11 61 -5 3 -12 18 -16 33 -5 23 -3 26 10
21 14 -5 15 1 9 53 -4 32 -13 62 -19 66 -8 5 -7 16 2 40 6 17 8 34 3 37 -17
12 -6 45 26 78 39 41 43 58 11 48 -57 -17 -71 -18 -64 -4 3 8 9 22 12 32 4 9
13 17 20 17 27 0 83 41 84 62 0 3 -9 4 -20 1 -26 -7 -26 13 -1 27 14 7 21 6
24 -3 2 -6 5 -1 6 13 0 14 4 47 7 73 6 48 6 49 -16 37 -24 -13 -50 1 -50 27 0
8 -5 11 -12 7 -6 -4 -8 -3 -4 4 3 6 2 13 -4 17 -5 3 -10 12 -10 18 0 7 4 6 10
-3 15 -25 21 -5 11 40 -5 23 -7 49 -4 56 3 9 -2 14 -13 15 -11 0 -14 3 -7 5 7
3 10 11 7 18 -3 7 7 18 21 26 35 19 31 34 -7 26 -30 -6 -31 -6 -14 13 13 15
14 20 4 24 -8 4 -6 6 5 6 10 1 16 5 13 10 -4 5 8 13 26 16 39 9 48 20 48 58 0
19 -6 30 -18 34 -10 2 -19 13 -19 24 -1 11 2 17 7 14 15 -9 22 38 11 68 -6 16
-7 29 -1 32 13 8 1 35 -16 35 -12 0 -12 4 -4 20 8 15 7 26 -2 43 -6 12 -13 31
-15 42 -2 10 -10 29 -18 42 -10 14 -11 24 -4 28 5 4 7 15 4 25 -4 13 0 20 15
25 21 7 27 30 10 40 -5 3 -10 17 -10 30 0 12 -7 26 -16 29 -10 4 -14 16 -13
34 2 16 -8 48 -24 76 -15 27 -27 51 -27 55 0 3 -13 15 -30 26 -51 34 -16 40
39 6 38 -23 51 -27 51 -16 0 8 4 15 9 15 6 0 8 -9 6 -21 -2 -11 6 -37 19 -57
13 -21 31 -50 40 -65 15 -24 19 -26 31 -13 20 19 19 30 -1 22 -12 -5 -14 -1
-8 17 3 12 7 22 8 23 0 0 18 11 39 23 20 13 35 26 32 31 -3 4 2 11 10 14 9 3
18 -1 21 -9 4 -8 10 -15 16 -15 5 0 0 12 -12 27 l-21 27 20 8 c12 4 21 15 21
25 0 15 -2 16 -10 3 -8 -13 -10 -12 -10 3 0 9 6 17 13 17 6 0 17 12 24 26 10
22 10 25 -4 20 -12 -5 -13 -4 -5 7 7 8 9 18 5 23 -4 5 -1 3 7 -3 16 -15 34
-17 25 -4 -3 5 4 12 15 16 24 7 26 23 5 31 -16 6 -21 24 -7 24 5 0 19 -19 32
-42 20 -36 24 -39 31 -22 11 27 10 42 -1 24 -7 -11 -10 -8 -9 15 0 17 3 24 6
18 2 -7 11 -13 19 -13 9 0 13 -4 10 -8 -2 -4 -1 -14 5 -22 6 -11 9 -8 9 12 0
15 -7 31 -16 36 -11 6 -13 11 -5 16 6 4 11 2 11 -4 0 -7 8 -9 21 -5 15 5 19 4
15 -4 -4 -6 -3 -11 3 -11 5 0 12 -10 14 -22 2 -13 4 1 4 29 0 29 -3 50 -8 47
-5 -3 -6 2 -3 10 3 8 12 16 20 18 11 2 10 6 -5 15 -17 10 -19 10 -15 -1 3 -7
-2 -16 -12 -20 -12 -5 -15 -2 -10 9 4 13 2 14 -14 5 -24 -13 -33 -13 -25 1 4
5 31 21 61 34 30 13 54 29 54 34 0 6 7 11 15 11 8 0 15 8 15 18 1 49 93 102
185 107 33 2 66 4 73 4 7 1 10 6 7 11 -3 6 -3 15 0 20 10 16 35 -8 28 -25 -3
-9 5 -16 24 -20 15 -4 43 -13 61 -21 37 -16 62 -18 62 -5 0 5 -7 11 -15 15 -8
3 -15 14 -15 25 0 14 -5 18 -20 14 -16 -4 -20 0 -20 17 0 17 4 21 20 17 24 -6
26 12 5 53 l-15 30 31 -7 c21 -4 34 -2 40 8 7 11 21 7 74 -21 36 -19 65 -38
65 -42 0 -5 10 -8 23 -8 33 -1 57 -24 57 -54 0 -27 7 -28 65 -11 6 1 11 -15
13 -36 2 -30 -2 -41 -18 -51 -28 -18 -25 -30 5 -22 29 7 44 -18 25 -41 -16
-20 -6 -45 19 -45 29 0 33 13 32 92 0 67 -3 74 -33 105 -29 30 -33 31 -48 18
-20 -19 -50 -10 -50 15 0 9 -7 31 -16 48 -12 25 -22 32 -44 32 -22 0 -33 7
-44 29 -9 16 -12 32 -8 36 4 5 2 5 -4 2 -14 -8 -53 21 -107 80 -21 23 -49 45
-60 49 -12 3 -31 14 -42 24 -25 22 -65 35 -65 21 0 -13 -57 -15 -65 -2 -3 5 0
21 6 35 18 40 -3 59 -57 51 -47 -7 -61 4 -44 34 8 16 6 22 -10 31 -12 6 -29 9
-39 5 -11 -3 -26 4 -41 20 -13 14 -30 25 -37 25 -8 0 -12 4 -9 9 3 4 -5 6 -18
4 -13 -3 -27 0 -30 6 -5 7 -1 9 8 5 9 -4 16 -1 16 6 0 8 -9 11 -24 8 -19 -4
-26 0 -28 15 -3 20 -4 20 -20 4 -10 -11 -19 -13 -23 -7 -3 5 -1 10 4 10 6 0
11 5 11 10 0 6 -7 10 -16 10 -10 0 -14 6 -11 14 4 10 1 13 -7 10 -8 -3 -17 0
-22 7 -5 8 -3 10 6 4 8 -5 11 -3 8 6 -3 8 -15 16 -29 17 -13 2 -30 9 -36 14
-9 7 -13 7 -13 -2 0 -10 -3 -10 -15 0 -8 7 -15 19 -15 27 0 10 -6 13 -16 9 -9
-3 -12 -2 -9 4 8 12 -53 40 -72 33 -7 -3 -15 2 -19 10 -5 14 -53 37 -75 37 -5
0 -9 -8 -9 -18 0 -15 6 -18 30 -14 28 4 66 -18 53 -32 -11 -11 -23 -7 -23 8 0
9 -12 13 -40 12 -25 0 -44 5 -49 13 -6 9 -16 11 -27 7 -11 -4 -30 -10 -44 -12
-22 -4 -23 -3 -6 7 15 9 16 13 5 20 -12 7 -12 9 0 9 11 0 10 5 -4 20 -24 27
-14 34 25 18 30 -13 32 -15 17 -30 -26 -26 -7 -29 21 -3 28 26 23 44 -12 49
-10 1 -21 7 -25 14 -3 6 -27 12 -52 13 -38 2 -46 6 -45 21 1 10 6 17 11 16 6
-2 9 -7 7 -12 -2 -5 4 -6 13 -2 9 3 21 6 26 6 5 0 9 11 9 25 0 46 58 18 75
-35 3 -10 19 -23 35 -29 16 -5 45 -25 63 -43 24 -25 55 -40 110 -57 42 -12 75
-27 74 -34 -1 -6 6 -13 15 -15 12 -2 21 5 28 22 12 33 22 32 92 -3 32 -16 66
-27 77 -24 11 3 27 -4 39 -18 19 -20 28 -21 82 -16 52 6 62 4 67 -11 9 -23 23
-32 53 -32 14 0 31 -9 38 -20 8 -13 23 -20 42 -20 17 0 30 -4 30 -10 0 -5 18
-10 40 -10 22 0 40 3 40 6 0 3 -22 26 -50 50 -27 25 -55 61 -62 80 -13 38 -43
46 -51 14 -3 -12 -14 -20 -26 -20 -28 0 -27 15 3 45 14 14 21 27 16 30 -13 8
-1 35 15 35 7 0 15 9 18 20 3 11 13 20 22 20 20 0 45 24 45 43 0 20 39 44 93
59 40 10 48 9 81 -10 43 -25 84 -29 92 -7 4 8 11 12 18 8 6 -4 16 -8 22 -9 7
-1 21 -10 32 -20 10 -11 36 -32 56 -47 20 -15 36 -34 36 -42 0 -8 4 -15 9 -15
6 0 47 -36 92 -80 45 -44 85 -80 89 -80 5 0 10 -6 13 -12 4 -10 7 -10 18 -1
10 10 9 21 -9 57 -12 24 -29 50 -38 56 -8 7 -40 51 -71 96 -31 46 -60 81 -64
78 -5 -3 -6 1 -3 9 3 8 -6 31 -20 52 -14 21 -27 48 -27 61 -1 13 -2 27 -3 32
-1 4 -25 29 -54 56 -28 27 -52 52 -52 57 0 4 -14 23 -31 41 -40 44 -92 131
-114 193 -10 28 -24 57 -32 66 -7 8 -13 22 -13 30 0 17 58 45 70 33 4 -5 15
-36 25 -69 9 -32 28 -82 42 -110 30 -60 112 -195 130 -213 7 -7 13 -17 13 -22
0 -4 21 -13 47 -19 37 -10 48 -9 54 1 6 8 3 14 -7 16 -16 4 -74 60 -74 72 0 3
-10 17 -22 31 -12 13 -30 34 -41 46 -23 26 -42 160 -25 181 6 7 10 47 9 91 -2
66 1 81 15 89 23 13 12 37 -27 61 l-31 19 49 4 c48 5 103 -15 103 -37 1 -16
102 -111 143 -133 37 -20 71 -54 160 -165 26 -32 47 -52 47 -45 2 47 13 204
15 206 2 2 3 -291 3 -650 0 -359 2 -1033 4 -1498 2 -727 -8 -1392 -20 -1310
-2 14 -7 30 -12 35 -13 17 -24 87 -22 145 0 30 -2 49 -4 43 -3 -7 -11 -13 -17
-13 -7 0 -20 -14 -29 -30 -10 -17 -12 -30 -6 -30 5 0 -3 -13 -18 -29 -50 -49
-99 -124 -96 -144 3 -16 0 -19 -18 -14 -15 4 -29 -2 -44 -18 -11 -13 -32 -27
-46 -31 -23 -6 -24 -6 -10 12 8 10 25 27 37 36 14 12 19 25 16 38 -4 14 0 20
11 20 9 0 16 5 16 10 0 6 -4 10 -9 10 -12 0 -6 59 8 73 6 6 11 27 11 47 0 29
-4 36 -20 37 -24 2 -26 -10 -5 -31 8 -8 15 -17 15 -20 0 -3 -7 -6 -15 -6 -8 0
-15 -7 -15 -15 0 -8 -4 -15 -10 -15 -5 0 -10 9 -10 19 0 11 -4 23 -10 26 -6 3
-7 -1 -4 -9 3 -9 1 -16 -5 -16 -6 0 -11 -7 -11 -15 0 -20 -16 -19 -24 1 -4 9
-13 14 -21 10 -8 -3 -15 -1 -15 4 0 6 4 10 10 10 5 0 9 3 8 8 -1 4 2 18 6 30
6 18 2 30 -14 47 -13 14 -20 31 -17 39 7 18 -9 31 -18 16 -14 -22 -35 -8 -45
31 -6 23 -9 43 -6 46 3 3 1 14 -4 23 -7 13 -3 27 15 54 27 40 31 61 14 71 -7
5 -8 55 -5 151 5 121 4 144 -8 144 -22 0 -27 15 -20 59 5 32 11 41 26 41 15 0
18 4 13 18 -4 9 -10 27 -12 40 -3 12 -9 25 -14 28 -5 3 -9 14 -9 25 0 10 -9
24 -20 31 -11 7 -20 17 -20 23 0 6 -8 15 -19 22 -15 9 -23 8 -40 -3 -27 -19
-27 -30 2 -39 13 -4 17 -8 10 -12 -7 -2 -13 -11 -13 -19 0 -17 -16 -19 -23 -1
-6 13 -46 -29 -47 -49 0 -5 -18 -23 -40 -40 -22 -16 -40 -35 -40 -42 0 -7 -10
-17 -22 -22 -19 -7 -20 -9 -5 -9 15 -1 12 -7 -14 -29 -18 -15 -40 -27 -50 -26
-11 1 -15 -5 -12 -17 4 -14 1 -16 -18 -12 -14 4 -20 2 -15 -5 3 -6 2 -13 -4
-17 -5 -3 -10 0 -10 7 -1 10 -4 9 -13 -2 -7 -8 -19 -16 -27 -17 -13 -2 -12 -1
1 9 13 9 14 16 5 34 -15 33 -28 30 -20 -4 5 -22 2 -19 -16 13 -40 72 -51 68
-13 -5 14 -27 18 -58 5 -46 -4 4 -7 11 -7 14 0 4 -3 12 -7 17 -38 61 -48 89
-38 99 9 8 20 2 42 -24 17 -19 28 -27 24 -17 -7 21 18 52 34 42 20 -12 9 13
-15 36 -13 13 -25 31 -25 39 1 12 3 11 11 -2 5 -10 14 -18 19 -18 5 0 1 15
-10 33 -24 38 -25 47 -6 47 8 0 17 7 20 16 5 13 4 14 -7 5 -15 -12 -69 -12
-61 1 3 4 14 8 24 8 10 0 31 11 46 25 21 19 30 22 40 14 8 -6 14 -8 14 -3 0 4
5 3 12 -4 7 -7 21 -12 32 -12 18 0 19 1 1 20 -19 21 -7 28 13 8 6 -6 15 -8 19
-3 5 4 2 10 -5 12 -9 4 -7 12 7 32 14 19 17 31 10 38 -16 16 7 46 60 76 25 14
64 42 85 62 22 19 44 35 49 35 5 0 20 9 34 20 23 18 26 18 43 2 26 -24 80
-136 80 -165 0 -41 20 -58 63 -51 32 6 37 10 37 33 -1 27 -21 109 -31 126 -4
6 -9 22 -13 37 -3 15 -20 57 -38 94 -27 57 -34 65 -52 58 -12 -4 -43 -8 -71
-9 -27 0 -61 -7 -73 -14 -33 -18 -72 -6 -72 22 -1 21 -1 21 -15 4 -10 -15 -21
-17 -44 -12 -42 9 -40 -17 4 -41 29 -16 68 -92 61 -119 -5 -19 -15 -24 -60
-29 -32 -4 -63 -3 -74 3 -13 7 -22 7 -30 -1 -9 -9 -25 -9 -62 0 -43 10 -56 9
-80 -3 -39 -20 -57 -20 -40 0 9 10 9 15 1 15 -18 0 -52 40 -45 52 4 6 3 8 -3
5 -6 -4 -18 2 -28 13 -15 17 -16 24 -6 46 6 14 9 30 6 35 -14 22 33 6 63 -22
28 -26 33 -28 32 -13 -7 59 0 85 26 96 24 11 29 9 55 -20 31 -34 49 -41 49
-17 0 8 11 22 25 31 32 21 31 27 -2 50 -21 14 -44 18 -90 16 -52 -2 -62 0 -66
15 -4 14 -5 13 -6 -4 -1 -25 -33 -49 -116 -87 -124 -58 -151 -71 -187 -93 -21
-13 -42 -23 -48 -23 -6 0 -23 -8 -38 -18 -15 -11 -50 -34 -79 -53 -35 -23 -61
-51 -82 -88 l-31 -53 35 -140 c19 -78 35 -167 36 -202 0 -33 4 -86 9 -116 16
-105 30 -215 32 -250 1 -19 10 -44 20 -55 19 -20 19 -20 -4 -24 -22 -3 -22 -4
-3 -12 18 -7 18 -8 2 -8 -17 -1 -18 -10 -15 -110 2 -63 -1 -107 -6 -104 -5 4
-6 -6 -2 -21 11 -46 25 -217 26 -314 0 -85 1 -92 16 -78 8 9 20 16 25 16 5 0
9 9 9 19 0 11 5 23 10 26 12 7 30 -34 23 -52 -7 -19 0 -16 33 12 16 14 32 25
37 25 14 0 7 41 -12 61 -16 18 -36 98 -26 107 5 5 45 -79 45 -95 0 -7 10 -15
23 -18 13 -4 29 -15 36 -27 7 -11 8 -17 2 -13 -7 3 -11 -2 -11 -14 0 -12 7
-21 16 -21 14 0 14 -2 0 -15 -18 -19 -30 -19 -23 -2 7 18 -8 41 -21 33 -5 -3
-12 -17 -14 -31 -4 -19 -1 -25 12 -25 11 0 20 -10 24 -26 7 -25 8 -26 22 -8
14 18 15 18 8 -6 -3 -14 -10 -29 -15 -34 -12 -13 -12 -29 0 -22 5 3 12 -1 15
-10 3 -9 11 -12 18 -8 8 5 9 2 5 -10 -4 -11 -3 -15 4 -11 13 8 64 -4 55 -13
-4 -3 -19 -8 -33 -10 -14 -2 -35 -10 -47 -18 -11 -8 -26 -14 -33 -14 -19 0
-16 18 5 23 10 2 1 7 -22 12 -28 6 -40 4 -47 -6 -6 -11 -11 -11 -21 -1 -9 9
-8 12 6 12 10 0 14 4 10 12 -4 6 -3 8 3 5 7 -4 10 3 9 17 0 13 -6 22 -12 19
-7 -2 -15 1 -19 7 -5 8 -15 3 -31 -16 -13 -15 -27 -24 -30 -21 -4 4 -1 13 5
21 10 12 8 19 -10 39 -13 16 -27 23 -37 20 -11 -5 -13 -3 -7 8 5 10 5 11 -3 4
-6 -5 -14 -33 -17 -61 l-7 -51 37 -7 c26 -5 34 -11 27 -18 -7 -7 -17 -6 -31 1
-20 11 -31 -1 -12 -13 5 -4 12 -24 16 -46 4 -22 12 -46 19 -53 41 -43 156
-253 156 -284 0 -10 223 -13 1080 -13 l1080 0 0 837 0 837 -27 -26 c-23 -21
-130 -68 -156 -68 -18 0 -4 41 20 57 14 10 42 34 62 53 20 19 50 40 66 46 23
8 31 18 33 42 4 37 0 39 -36 13 -15 -10 -39 -21 -54 -25 l-27 -6 20 34 c22 37
39 54 73 71 l21 11 3 1767 2 1767 -2705 0 -2705 0 0 -2705z m2670 2421 c63 -2
70 -11 70 -99 0 -52 4 -69 16 -74 8 -3 13 -12 10 -20 -3 -8 -1 -11 4 -8 6 3
10 12 10 19 0 19 25 37 42 31 28 -11 38 -49 24 -90 -16 -45 -32 -56 -62 -43
-16 8 -24 22 -29 54 -4 31 -11 44 -23 45 -45 3 -81 -16 -62 -35 5 -5 10 -14
10 -18 0 -13 -67 -3 -85 12 -20 17 -47 79 -39 91 3 5 -2 9 -10 9 -20 0 -31
-43 -17 -68 24 -46 2 -71 -44 -50 -21 10 -27 8 -39 -8 -12 -15 -12 -23 -1 -44
15 -29 18 -100 4 -100 -6 0 -20 -9 -32 -20 l-22 -21 -9 21 c-7 15 -6 28 2 41
9 14 9 30 0 69 -8 36 -9 54 -1 58 5 4 13 24 17 44 6 31 3 39 -14 48 -33 18
-25 49 17 67 20 8 51 16 69 17 17 2 36 6 43 10 7 5 19 0 27 -10 14 -17 14 -15
11 24 -3 31 -1 42 9 42 8 0 14 5 14 10 0 6 -4 10 -10 10 -5 0 -7 7 -3 16 5 13
9 12 29 -7 18 -17 37 -23 74 -23z m-446 -2 c9 -3 16 -10 16 -15 0 -15 -37 -10
-50 6 -10 12 -10 15 3 15 8 0 22 -3 31 -6z m-34 -44 c0 -5 -7 -10 -15 -10 -8
0 -15 5 -15 10 0 6 7 10 15 10 8 0 15 -4 15 -10z m144 -35 c3 -9 0 -15 -9 -15
-9 0 -12 6 -9 15 4 8 7 15 9 15 2 0 5 -7 9 -15z m517 -11 c12 -14 11 -16 -5
-13 -11 2 -21 10 -24 17 -5 17 13 15 29 -4z m-567 -59 c3 -8 15 -15 28 -15 17
0 19 -3 10 -12 -9 -9 -8 -16 4 -29 11 -12 12 -19 4 -24 -7 -4 -14 2 -17 14 -3
12 -10 21 -16 21 -18 0 -46 31 -40 46 7 18 19 18 27 -1z m-404 -69 c0 -43 -48
-66 -84 -40 -11 8 -28 14 -38 14 -31 0 -19 16 21 28 21 7 44 19 51 27 17 20
50 1 50 -29z m241 14 c39 -21 10 -67 -36 -56 -27 7 -33 34 -13 54 15 15 24 15
49 2z m817 -33 c2 -12 -3 -17 -17 -17 -12 0 -21 6 -21 13 0 31 32 34 38 4z
m-677 -23 c10 -13 10 -17 -2 -25 -18 -11 -39 -12 -39 0 0 5 -3 16 -6 25 -8 22
29 22 47 0z m-244 -20 c4 -10 -1 -22 -12 -30 -23 -17 -35 -9 -35 22 0 17 5 24
20 24 11 0 23 -7 27 -16z m638 6 c11 -18 -5 -49 -36 -71 -57 -41 -72 -3 -22
55 24 27 47 33 58 16z m585 -49 c8 -10 24 -32 35 -47 31 -44 137 -144 153
-144 4 0 13 -9 20 -20 7 -11 18 -20 25 -20 6 0 25 -18 40 -40 16 -22 34 -40
42 -40 7 0 15 -7 19 -15 6 -17 -24 -21 -52 -6 -16 9 -56 20 -75 20 -4 0 -21 8
-38 17 -17 8 -37 13 -45 10 -7 -3 -16 -1 -19 3 -19 31 -225 10 -293 -30 -19
-11 -52 -19 -75 -19 -24 0 -61 -9 -82 -20 -22 -12 -72 -29 -111 -40 -40 -10
-81 -24 -92 -31 -12 -7 -24 -10 -27 -7 -11 10 26 58 44 58 16 0 31 13 92 79
10 12 19 26 19 31 0 6 14 10 31 10 17 0 28 -4 24 -10 -3 -5 13 -3 37 6 24 8
50 13 60 11 9 -3 29 4 45 14 18 13 37 17 55 13 20 -4 29 0 37 14 12 22 36 23
84 3 36 -14 134 -14 143 0 3 6 1 16 -5 22 -6 6 -11 18 -11 27 0 8 -13 28 -30
43 -16 16 -30 32 -30 37 0 4 -13 10 -30 12 -16 3 -30 1 -30 -4 0 -4 -24 -8
-54 -8 -57 0 -78 -13 -53 -33 8 -7 18 -22 21 -33 5 -17 1 -23 -16 -28 -25 -6
-58 23 -58 51 0 8 -5 11 -10 8 -6 -4 -21 0 -34 9 -31 20 -31 66 -1 66 12 0 38
9 60 20 22 11 51 20 66 20 15 0 29 7 32 14 8 20 66 4 87 -23z m-370 -81 c0 -5
-4 -10 -10 -10 -5 0 -10 5 -10 10 0 6 5 10 10 10 6 0 10 -4 10 -10z m-200 -4
c0 -9 -30 -14 -35 -6 -4 6 3 10 14 10 12 0 21 -2 21 -4z m285 -46 c3 -5 -1
-10 -9 -10 -9 0 -16 5 -16 10 0 6 4 10 9 10 6 0 13 -4 16 -10z m-653 -22 c-7
-7 -12 -8 -12 -2 0 14 12 26 19 19 2 -3 -1 -11 -7 -17z m208 6 c0 -11 -5 -14
-16 -10 -9 3 -18 6 -20 6 -3 0 -2 5 1 10 10 16 35 12 35 -6z m-220 -49 c0 -18
-48 -55 -70 -55 -44 0 -24 75 22 82 26 4 48 -8 48 -27z m220 5 c0 -5 -5 -10
-11 -10 -5 0 -7 5 -4 10 3 6 8 10 11 10 2 0 4 -4 4 -10z m1581 -38 c15 -13 20
-24 15 -37 -6 -17 -9 -15 -26 12 -10 17 -24 33 -32 36 -9 4 -8 6 3 6 9 1 27
-7 40 -17z m-1771 -37 c0 -9 -7 -18 -16 -22 -18 -7 -39 11 -30 26 11 17 46 13
46 -4z m-43 -48 c4 -12 6 -28 5 -34 -2 -7 1 -13 7 -13 19 0 16 -35 -5 -57 -29
-31 -37 -29 -56 12 -13 29 -13 38 -2 60 7 15 13 29 13 33 -6 37 25 35 38 -1z
m1893 -14 c0 -9 -6 -8 -19 4 -11 9 -17 22 -14 30 4 11 8 10 19 -4 7 -10 14
-24 14 -30z m-2005 -48 c0 -33 -4 -55 -11 -55 -16 0 -52 72 -38 77 6 2 20 10
30 18 10 8 19 15 19 15 1 0 1 -25 0 -55z m1432 19 c-3 -3 -12 -4 -19 -1 -8 3
-5 6 6 6 11 1 17 -2 13 -5z m621 -22 c2 -7 -2 -10 -12 -6 -9 3 -16 11 -16 16
0 13 23 5 28 -10z m-2215 -28 c-6 -17 -25 -14 -31 6 -3 7 0 10 7 6 6 -4 11 -2
11 4 0 6 4 9 10 5 5 -3 7 -12 3 -21z m562 -4 c-3 -5 -12 -10 -18 -10 -7 0 -6
4 3 10 19 12 23 12 15 0z m62 -40 c-5 -20 -3 -30 6 -30 19 -1 -36 -40 -56 -40
-18 0 -21 5 -31 51 -6 29 18 47 63 48 21 1 23 -2 18 -29z m828 4 c5 -7 21 -14
35 -16 18 -2 28 -13 40 -45 8 -22 23 -50 33 -60 25 -28 20 -63 -13 -102 -21
-25 -27 -38 -19 -47 7 -8 7 -14 -1 -19 -5 -3 -10 0 -10 7 0 8 -23 25 -51 38
-94 45 -142 138 -96 184 9 10 17 30 17 45 0 15 3 31 7 34 9 9 45 -3 58 -19z
m247 -174 c-3 -28 3 -51 23 -85 23 -39 26 -50 17 -71 -16 -33 -61 -34 -63 -1
-1 12 -1 25 -1 28 1 3 -10 12 -23 19 -24 13 -27 44 -10 115 16 67 63 63 57 -5z
m-317 -180 c8 -13 -13 -40 -31 -40 -17 0 -18 37 -1 43 19 8 25 8 32 -3z m-853
-115 c0 -5 -5 -11 -11 -13 -6 -2 -11 4 -11 13 0 9 5 15 11 13 6 -2 11 -8 11
-13z m108 -109 c0 -21 -20 -30 -33 -17 -9 9 -8 14 3 21 21 14 30 12 30 -4z
m1360 -31 c0 -9 -9 -15 -25 -15 -18 0 -23 4 -19 15 4 8 15 15 25 15 10 0 19
-7 19 -15z m-1385 -34 c3 -5 1 -12 -5 -16 -5 -3 -10 1 -10 9 0 18 6 21 15 7z
m-5 -84 c0 -16 -37 -53 -45 -45 -3 2 1 16 8 31 13 28 37 37 37 14z m105 -25
c0 -18 -20 -15 -23 4 -3 10 1 15 10 12 7 -3 13 -10 13 -16z m305 8 c0 -5 -5
-10 -11 -10 -5 0 -7 5 -4 10 3 6 8 10 11 10 2 0 4 -4 4 -10z m-380 -20 c0 -5
-2 -10 -4 -10 -3 0 -8 5 -11 10 -3 6 -1 10 4 10 6 0 11 -4 11 -10z m696 -17
c-3 -8 -6 -17 -6 -19 0 -2 -6 -4 -14 -4 -15 0 -29 27 -21 40 9 14 47 -1 41
-17z m179 16 c8 -12 -22 -79 -35 -79 -6 0 -9 -10 -7 -22 1 -17 -4 -24 -20 -26
-25 -4 -41 31 -24 52 6 7 8 16 4 20 -4 4 -9 18 -11 33 -2 20 0 24 12 20 9 -4
16 -2 16 3 0 13 57 13 65 -1z m60 0 c11 -17 2 -18 -19 -3 -17 12 -17 14 -4 14
9 0 20 -5 23 -11z m-820 -18 c3 -6 -4 -9 -15 -8 -11 1 -20 5 -20 9 0 11 28 10
35 -1z m-75 -5 c0 -10 -33 -36 -46 -36 -11 0 -10 4 3 20 15 18 43 28 43 16z
m55 -24 c-7 -8 -35 7 -35 18 0 6 7 6 20 -2 10 -7 17 -14 15 -16z m-135 -12 c0
-5 -4 -10 -10 -10 -5 0 -10 5 -10 10 0 6 5 10 10 10 6 0 10 -4 10 -10z m407
-46 c-3 -3 -12 -4 -19 -1 -8 3 -5 6 6 6 11 1 17 -2 13 -5z m-427 -19 c0 -8 -4
-15 -10 -15 -5 0 -10 7 -10 15 0 8 5 15 10 15 6 0 10 -7 10 -15z m50 -5 c0 -5
-4 -10 -10 -10 -5 0 -10 5 -10 10 0 6 5 10 10 10 6 0 10 -4 10 -10z m384 -5
c-4 -8 -8 -15 -10 -15 -2 0 -4 7 -4 15 0 8 4 15 10 15 5 0 7 -7 4 -15z m616
-26 c0 -12 -7 -19 -20 -19 -19 0 -28 28 -14 43 11 11 34 -5 34 -24z m-585 2
c-3 -6 -16 -16 -28 -22 -20 -10 -20 -9 3 14 25 24 38 28 25 8z m-461 -6 c-4
-8 -8 -15 -10 -15 -2 0 -4 7 -4 15 0 8 4 15 10 15 5 0 7 -7 4 -15z m126 -5 c0
-5 -2 -10 -4 -10 -3 0 -8 5 -11 10 -3 6 -1 10 4 10 6 0 11 -4 11 -10z m370
-30 c0 -5 -5 -10 -11 -10 -5 0 -7 5 -4 10 3 6 8 10 11 10 2 0 4 -4 4 -10z m74
-41 c-8 -14 -24 -10 -24 6 0 9 6 12 15 9 8 -4 12 -10 9 -15z m-651 -4 c-3 -9
-8 -14 -10 -11 -3 3 -2 9 2 15 9 16 15 13 8 -4z m163 -42 c-10 -10 -19 5 -10
18 6 11 8 11 12 0 2 -7 1 -15 -2 -18z m651 -43 c2 -18 0 -19 -13 -5 -9 8 -20
13 -25 10 -5 -4 -9 -1 -9 4 0 6 10 11 23 11 16 0 23 -6 24 -20z m-97 1 c0 -5
-7 -11 -14 -14 -10 -4 -13 -1 -9 9 6 15 23 19 23 5z m-1590 -32 c0 -24 -23
-21 -28 4 -2 10 3 17 12 17 10 0 16 -9 16 -21z m1740 -1 c0 -16 -3 -19 -11
-11 -6 6 -8 16 -5 22 11 17 16 13 16 -11z m-140 8 c0 -3 -4 -8 -10 -11 -5 -3
-10 -1 -10 4 0 6 5 11 10 11 6 0 10 -2 10 -4z m70 -41 c0 -8 -4 -15 -10 -15
-5 0 -10 7 -10 15 0 8 5 15 10 15 6 0 10 -7 10 -15z m60 -6 c0 -5 -4 -9 -10
-9 -5 0 -10 7 -10 16 0 8 5 12 10 9 6 -3 10 -10 10 -16z m80 -9 c16 -38 27
-138 20 -170 -3 -14 -12 -25 -20 -25 -12 0 -14 13 -12 63 2 40 -1 62 -8 62 -6
0 -8 4 -5 10 3 5 -2 21 -11 35 -13 20 -14 28 -4 40 18 22 26 19 40 -15z m-232
2 c2 -7 -3 -12 -12 -12 -9 0 -16 7 -16 16 0 17 22 14 28 -4z m-8 -31 c0 -6 -4
-13 -10 -16 -5 -3 -10 1 -10 9 0 9 5 16 10 16 6 0 10 -4 10 -9z m190 -16 c0
-8 -7 -15 -15 -15 -8 0 -15 7 -15 15 0 8 7 15 15 15 8 0 15 -7 15 -15z m-200
-25 c0 -5 -4 -10 -10 -10 -5 0 -10 5 -10 10 0 6 5 10 10 10 6 0 10 -4 10 -10z
m-645 -10 c3 -5 1 -10 -4 -10 -6 0 -11 5 -11 10 0 6 2 10 4 10 3 0 8 -4 11
-10z m-368 -86 c-3 -3 -12 -4 -19 -1 -8 3 -5 6 6 6 11 1 17 -2 13 -5z m1223
-4 c0 -5 -2 -10 -4 -10 -3 0 -8 5 -11 10 -3 6 -1 10 4 10 6 0 11 -4 11 -10z
m-220 -12 c-1 -15 -24 -48 -34 -48 -3 0 -6 7 -6 15 0 8 5 15 10 15 6 0 10 7
10 15 0 8 5 15 10 15 6 0 10 -6 10 -12z m386 -5 c-4 -10 -4 -14 0 -11 10 11
44 -11 44 -27 0 -8 -8 -15 -18 -15 -10 0 -23 -5 -29 -11 -8 -8 -18 -3 -36 17
-28 30 -27 41 7 54 32 13 39 12 32 -7z m-1336 -33 c0 -12 -40 -33 -48 -25 -4
4 2 13 12 21 23 16 36 18 36 4z m1000 1 c0 -5 -7 -14 -15 -21 -18 -15 -42 1
-31 19 8 13 46 15 46 2z m230 -11 c0 -5 -5 -10 -11 -10 -5 0 -7 5 -4 10 3 6 8
10 11 10 2 0 4 -4 4 -10z m-200 -14 c0 -3 -4 -8 -10 -11 -5 -3 -10 -1 -10 4 0
6 5 11 10 11 6 0 10 -2 10 -4z m110 -26 c0 -13 -5 -18 -15 -14 -8 4 -15 12
-15 20 0 8 7 14 15 14 8 0 15 -9 15 -20z m277 -12 c-20 -13 -47 -9 -47 6 0 17
42 26 52 11 4 -5 2 -13 -5 -17z m-477 -8 c0 -5 -4 -10 -10 -10 -5 0 -10 5 -10
10 0 6 5 10 10 10 6 0 10 -4 10 -10z m370 -22 c0 -13 -23 -5 -28 10 -2 7 2 10
12 6 9 -3 16 -11 16 -16z m-260 2 c0 -5 -4 -10 -10 -10 -5 0 -10 5 -10 10 0 6
5 10 10 10 6 0 10 -4 10 -10z m190 -9 c0 -6 -5 -13 -11 -16 -6 -4 -8 -13 -5
-21 3 -8 1 -14 -5 -14 -13 0 -22 27 -15 45 6 16 36 21 36 6z m151 -40 c3 -27
2 -40 -5 -38 -17 5 -38 56 -32 73 11 28 31 8 37 -35z m-271 29 c0 -5 -4 -10
-10 -10 -5 0 -10 5 -10 10 0 6 5 10 10 10 6 0 10 -4 10 -10z m214 -31 c-5 -8
-10 -6 -16 5 -5 9 -6 21 -2 27 5 8 10 6 16 -5 5 -9 6 -21 2 -27z m-64 21 c0
-5 -2 -10 -4 -10 -3 0 -8 5 -11 10 -3 6 -1 10 4 10 6 0 11 -4 11 -10z m185
-31 c10 -15 -1 -23 -20 -15 -9 3 -13 10 -10 16 8 13 22 13 30 -1z m-155 -3 c0
-3 -4 -8 -10 -11 -5 -3 -10 -1 -10 4 0 6 5 11 10 11 6 0 10 -2 10 -4z m-170
-25 c0 -12 -20 -25 -27 -18 -7 7 6 27 18 27 5 0 9 -4 9 -9z m-350 -41 c0 -5
-5 -10 -11 -10 -5 0 -7 5 -4 10 3 6 8 10 11 10 2 0 4 -4 4 -10z m415 -20 c3
-5 1 -10 -4 -10 -6 0 -11 5 -11 10 0 6 2 10 4 10 3 0 8 -4 11 -10z m-345 -80
c0 -5 -4 -10 -10 -10 -5 0 -10 5 -10 10 0 6 5 10 10 10 6 0 10 -4 10 -10z
m-1010 -40 c0 -5 -4 -10 -10 -10 -5 0 -10 5 -10 10 0 6 5 10 10 10 6 0 10 -4
10 -10z m1027 -67 c-4 -3 -1 -13 6 -22 11 -14 10 -14 -5 -2 -16 12 -18 11 -19
-10 0 -22 -1 -22 -8 -5 -5 14 -10 16 -15 8 -9 -15 -26 -16 -26 -1 0 5 4 8 9 5
4 -3 16 3 26 14 10 11 23 20 28 20 6 0 7 -3 4 -7z m66 -15 c2 -13 8 -32 12
-43 4 -11 -2 -5 -14 13 -22 35 -26 52 -12 52 5 0 11 -10 14 -22z m-19 -34 c4
-16 2 -32 -4 -38 -8 -8 -9 -6 -4 8 5 13 4 17 -4 12 -6 -3 -13 -2 -17 4 -3 5
-2 10 4 10 6 0 8 7 5 15 -4 8 -2 15 4 15 5 0 13 -12 16 -26z m-1569 -21 c9
-13 14 -32 11 -40 -4 -9 1 -24 9 -33 11 -12 13 -20 6 -25 -15 -9 -31 3 -41 31
-6 14 -18 24 -30 24 -15 0 -20 7 -20 24 0 58 33 68 65 19z m1425 6 c-7 -11
-14 -19 -16 -16 -7 7 7 37 17 37 6 0 5 -9 -1 -21z m50 -4 c10 -12 10 -15 -3
-15 -8 0 -17 7 -21 15 -3 8 -2 15 3 15 5 0 14 -7 21 -15z m-33 -22 c-4 -3 1
-12 11 -19 14 -10 15 -15 4 -26 -11 -11 -12 -10 -6 6 5 13 4 17 -3 13 -6 -4
-13 -1 -16 7 -5 13 0 26 11 26 3 0 2 -3 -1 -7z m93 -43 c0 -5 -4 -10 -10 -10
-5 0 -10 5 -10 10 0 6 5 10 10 10 6 0 10 -4 10 -10z m-127 -28 c-7 -28 -23
-29 -23 -1 0 11 5 17 10 14 6 -3 10 -1 10 6 0 7 2 10 5 8 2 -3 2 -15 -2 -27z
m-1393 -76 c0 -12 -5 -7 -19 24 -11 24 -11 24 3 6 9 -11 16 -24 16 -30z m90
29 c7 -8 9 -22 6 -32 -4 -9 -1 -20 6 -25 10 -8 10 -11 1 -15 -7 -2 -13 -12
-13 -21 0 -12 3 -13 12 -4 7 7 20 12 30 12 16 0 16 -4 -8 -41 -14 -23 -21 -38
-15 -35 6 4 11 0 11 -9 0 -11 5 -15 16 -11 8 3 13 2 10 -3 -3 -5 5 -12 19 -15
20 -5 25 -13 25 -36 0 -17 -4 -30 -10 -30 -5 0 -7 -8 -4 -17 5 -17 5 -17 -9 0
-8 9 -17 17 -21 17 -12 0 -46 41 -49 59 -2 11 -8 26 -15 34 -7 8 -10 22 -6 30
4 10 -8 33 -31 62 -33 40 -36 47 -24 63 29 36 49 41 69 17z m1030 -116 c0 -6
-4 -7 -10 -4 -5 3 -10 11 -10 16 0 6 5 7 10 4 6 -3 10 -11 10 -16z m260 -9 c0
-5 -5 -10 -11 -10 -5 0 -7 5 -4 10 3 6 8 10 11 10 2 0 4 -4 4 -10z m-273 -136
c-3 -3 -12 -4 -19 -1 -8 3 -5 6 6 6 11 1 17 -2 13 -5z m-897 -54 c0 -11 7 -20
15 -20 8 0 15 -7 15 -15 0 -8 9 -15 20 -15 11 0 20 -4 20 -10 0 -16 -36 -11
-58 8 -22 19 -38 72 -22 72 5 0 10 -9 10 -20z m2220 -140 c0 -15 -7 -20 -25
-20 -24 0 -34 18 -18 33 15 15 43 7 43 -13z m-119 -59 c-14 -25 -41 -47 -41
-32 0 6 4 11 10 11 5 0 12 11 16 25 3 14 10 22 15 19 5 -3 5 -13 0 -23z m69
-15 c0 -2 -3 -11 -6 -20 -5 -12 -10 -13 -25 -5 -23 12 -16 29 12 29 10 0 19
-2 19 -4z m-420 -53 c11 -3 11 -1 -2 10 -28 23 -22 40 7 21 29 -19 32 -36 9
-55 -14 -11 -19 -9 -35 11 -10 14 -19 34 -19 45 0 18 2 17 13 -4 6 -14 19 -26
27 -28z m-105 -14 c4 -10 11 -19 16 -19 5 0 9 -9 9 -20 0 -11 -4 -20 -9 -20
-5 0 -7 -10 -4 -22 4 -21 2 -20 -21 7 -28 32 -34 51 -13 38 7 -4 6 3 -4 17 -9
14 -14 30 -12 37 6 17 31 5 38 -18z m420 11 c-3 -5 -11 -10 -16 -10 -6 0 -7 5
-4 10 3 6 11 10 16 10 6 0 7 -4 4 -10z m55 -22 c0 -5 -4 -8 -10 -8 -5 0 -10
10 -10 23 0 18 2 19 10 7 5 -8 10 -18 10 -22z m-460 -100 c0 20 17 13 25 -10
13 -43 15 -58 6 -58 -5 0 -11 6 -14 13 -2 6 -8 9 -12 5 -7 -7 12 -32 28 -37 4
-1 16 7 25 19 11 13 22 17 30 11 11 -7 11 -11 -1 -22 -13 -12 -68 -49 -131
-86 -17 -10 -18 -13 -5 -13 19 0 33 -26 19 -35 -5 -3 -17 3 -26 14 -16 18 -19
18 -41 4 -21 -14 -23 -14 -23 5 0 11 5 22 12 24 6 2 8 10 4 17 -6 9 -11 9 -22
0 -24 -20 -17 11 8 32 24 21 18 24 -15 8 -17 -8 -16 -5 6 13 15 13 27 29 27
36 0 7 7 12 15 12 17 0 20 16 5 25 -5 3 -10 11 -10 16 0 14 24 -11 44 -46 l17
-30 -7 34 c-4 23 -3 31 5 27 6 -4 11 -2 11 4 0 6 -12 15 -26 20 -17 7 -24 15
-20 25 3 9 0 15 -9 15 -9 0 -12 6 -8 17 5 14 14 8 45 -28 21 -24 38 -38 38
-31z m55 14 c-2 -2 -12 1 -23 7 -14 7 -18 17 -15 32 5 19 7 19 24 -7 10 -16
16 -30 14 -32z m-135 6 c0 -5 -4 -8 -10 -8 -5 0 -10 5 -10 11 0 5 -4 8 -8 5
-5 -3 -9 1 -9 8 0 11 4 12 19 3 10 -7 18 -15 18 -19z m625 5 c-9 -8 -18 -13
-21 -10 -8 8 19 36 29 30 4 -2 0 -11 -8 -20z m-55 -14 c0 -24 -23 -21 -28 4
-2 10 3 17 12 17 10 0 16 -9 16 -21z m-606 -78 c-4 -3 -9 0 -11 7 -3 6 -9 10
-14 6 -11 -6 -12 9 -2 20 4 4 13 -1 20 -10 7 -10 10 -20 7 -23z m630 30 c7
-10 -18 -34 -27 -25 -7 8 3 34 13 34 5 0 11 -4 14 -9z m-14 -61 c0 -5 -5 -10
-11 -10 -5 0 -7 5 -4 10 3 6 8 10 11 10 2 0 4 -4 4 -10z m-30 -10 c0 -5 -4
-10 -9 -10 -6 0 -13 5 -16 10 -3 6 1 10 9 10 9 0 16 -4 16 -10z m-637 -67
c-24 -18 -37 -16 -19 3 9 8 16 21 16 27 0 7 4 6 10 -3 7 -11 5 -19 -7 -27z
m217 27 c0 -5 -4 -10 -10 -10 -5 0 -10 5 -10 10 0 6 5 10 10 10 6 0 10 -4 10
-10z m-266 -29 c3 -4 -4 -17 -17 -27 -17 -15 -19 -15 -8 -2 7 9 10 22 6 28 -3
5 -2 10 4 10 5 0 12 -4 15 -9z m-159 -49 c-8 -9 -25 20 -18 31 3 5 10 2 15 -7
6 -10 7 -20 3 -24z m243 26 c-2 -7 -10 -18 -18 -25 -13 -11 -12 -14 8 -19 12
-3 22 -10 22 -15 0 -13 -7 -11 -35 7 -18 12 -25 13 -25 4 0 -7 -8 -10 -20 -7
-15 4 -20 0 -20 -14 0 -11 -7 -19 -16 -19 -8 0 -13 -4 -10 -9 5 -8 -11 -8 -34
-1 -3 1 9 8 25 15 17 8 24 14 17 15 -10 0 -10 5 2 21 30 44 110 79 104 47z
m482 -28 c8 -5 12 -12 9 -15 -8 -8 -39 5 -39 16 0 11 11 11 30 -1z m-420 -30
c0 -13 -28 -25 -38 -16 -3 4 0 11 8 16 20 13 30 12 30 0z m-251 -72 c1 -5 -3
-8 -9 -8 -5 0 -10 12 -9 28 0 24 1 25 9 7 5 -11 9 -23 9 -27z m21 22 c0 -5 -2
-10 -4 -10 -3 0 -8 5 -11 10 -3 6 -1 10 4 10 6 0 11 -4 11 -10z m673 -2 c-2
-5 2 -8 10 -8 8 0 21 -8 28 -17 8 -9 9 -14 2 -10 -14 8 -53 -38 -53 -62 0 -29
49 -86 75 -88 14 -1 26 4 27 10 0 7 2 17 3 22 2 6 3 16 4 23 3 29 18 9 19 -25
1 -21 4 -51 8 -66 3 -15 1 -33 -5 -40 -5 -7 -14 -25 -20 -39 -8 -22 -7 -31 6
-43 11 -12 19 -13 26 -6 24 24 37 11 37 -34 0 -32 -4 -45 -14 -45 -22 0 -41
-31 -41 -69 0 -38 1 -38 -65 -24 -22 4 -29 -1 -45 -35 -15 -30 -25 -39 -43
-39 -26 0 -45 -20 -38 -39 4 -11 -34 -34 -55 -34 -5 0 -14 10 -19 23 -5 12 -9
16 -9 9 -1 -7 -5 -11 -10 -8 -5 3 -14 -1 -21 -9 -16 -19 -34 -19 -27 -1 3 8 1
16 -4 18 -5 2 -11 22 -12 45 -1 28 -5 39 -14 36 -7 -3 -15 7 -19 24 -3 15 -13
48 -22 73 -8 25 -15 78 -15 120 0 41 -2 70 -4 63 -7 -20 -33 -2 -33 23 0 14
-7 27 -15 30 -8 4 -12 11 -8 18 4 6 -1 5 -10 -3 -9 -7 -17 -9 -17 -4 0 19 36
83 43 77 4 -4 7 -2 7 4 0 8 7 9 26 2 16 -7 23 -7 19 0 -3 6 -1 10 5 10 6 0 11
10 10 23 -3 37 -1 39 22 17 13 -11 32 -19 43 -18 17 3 20 9 17 45 -3 36 0 42
19 48 14 5 25 3 27 -4 2 -6 10 -11 18 -11 15 0 20 -26 5 -32 -5 -1 2 -11 15
-21 26 -20 32 -17 10 6 -9 9 -11 19 -5 28 8 12 11 12 19 -1 9 -12 10 -12 8 5
-4 31 7 40 50 40 22 0 38 -3 35 -7z m-634 -29 c4 -12 2 -12 -12 0 -11 9 -17
10 -17 2 0 -6 -5 -11 -11 -11 -8 0 -7 5 1 15 15 18 32 15 39 -6z m-99 -11 c0
-16 -3 -19 -11 -11 -6 6 -8 16 -5 22 11 17 16 13 16 -11z m190 2 c0 -5 -5 -10
-11 -10 -5 0 -7 5 -4 10 3 6 8 10 11 10 2 0 4 -4 4 -10z m132 -17 c-6 -3 -10
-9 -6 -14 3 -5 1 -9 -4 -9 -17 0 -21 13 -11 32 9 16 13 17 22 8 9 -10 9 -14
-1 -17z m505 21 c-3 -3 -12 -4 -19 -1 -8 3 -5 6 6 6 11 1 17 -2 13 -5z m-787
-14 c0 -5 -7 -10 -15 -10 -8 0 -15 5 -15 10 0 6 7 10 15 10 8 0 15 -4 15 -10z
m790 -50 c0 -5 -2 -10 -4 -10 -3 0 -8 5 -11 10 -3 6 -1 10 4 10 6 0 11 -4 11
-10z m-546 -35 c-4 -8 -8 -15 -10 -15 -2 0 -4 7 -4 15 0 8 4 15 10 15 5 0 7
-7 4 -15z m-279 -5 c3 -5 2 -10 -4 -10 -5 0 -13 5 -16 10 -3 6 -2 10 4 10 5 0
13 -4 16 -10z m45 -10 c0 -5 -4 -10 -10 -10 -5 0 -10 5 -10 10 0 6 5 10 10 10
6 0 10 -4 10 -10z m110 -20 c0 -5 -2 -10 -4 -10 -3 0 -8 5 -11 10 -3 6 -1 10
4 10 6 0 11 -4 11 -10z m-430 -32 c0 -12 -1 -19 -3 -17 -1 2 -9 12 -16 22 -12
14 -11 17 3 17 10 0 16 -8 16 -22z m346 -25 c-10 -10 -19 5 -10 18 6 11 8 11
12 0 2 -7 1 -15 -2 -18z m-392 -26 c14 -13 23 -27 19 -30 -12 -12 -21 -7 -43
23 -25 36 -11 40 24 7z m290 2 c-3 -5 -10 -7 -15 -3 -5 3 -7 10 -3 15 3 5 10
7 15 3 5 -3 7 -10 3 -15z m139 -9 c3 -11 2 -20 -3 -20 -4 0 -10 9 -13 20 -3
11 -2 20 3 20 4 0 10 -9 13 -20z m-75 -22 c-3 -7 -1 -17 4 -23 5 -5 16 -19 24
-30 15 -20 15 -20 9 2 -5 18 -3 22 10 17 14 -6 14 -9 2 -28 -9 -14 -11 -32 -6
-56 4 -19 5 -37 3 -40 -8 -8 -23 23 -29 62 -4 21 -11 38 -16 38 -4 0 -5 7 -2
17 4 11 3 14 -5 9 -8 -5 -12 1 -12 18 0 14 5 26 11 26 6 0 9 -6 7 -12z m202 8
c0 -3 -4 -8 -10 -11 -5 -3 -10 -1 -10 4 0 6 5 11 10 11 6 0 10 -2 10 -4z m60
-16 c0 -5 -2 -10 -4 -10 -3 0 -8 5 -11 10 -3 6 -1 10 4 10 6 0 11 -4 11 -10z
m120 -14 c0 -3 -4 -8 -10 -11 -5 -3 -10 -1 -10 4 0 6 5 11 10 11 6 0 10 -2 10
-4z m-690 -46 c0 -9 -7 -11 -26 -9 -3 0 -14 -10 -25 -22 -24 -28 -33 -21 -16
14 9 20 20 27 40 27 15 0 27 -4 27 -10z m1295 -10 c4 -6 11 -8 16 -5 5 4 9 -1
9 -9 0 -9 -4 -16 -10 -16 -5 0 -10 -7 -10 -15 0 -8 -4 -15 -10 -15 -5 0 -10 6
-10 13 0 6 -3 22 -6 35 -6 22 9 31 21 12z m-835 -10 c0 -5 -4 -10 -10 -10 -5
0 -10 5 -10 10 0 6 5 10 10 10 6 0 10 -4 10 -10z m190 0 c0 -5 -4 -10 -10 -10
-5 0 -10 5 -10 10 0 6 5 10 10 10 6 0 10 -4 10 -10z m745 0 c3 -5 1 -10 -4
-10 -6 0 -11 5 -11 10 0 6 2 10 4 10 3 0 8 -4 11 -10z m-775 -20 c0 -5 -2 -10
-4 -10 -3 0 -8 5 -11 10 -3 6 -1 10 4 10 6 0 11 -4 11 -10z m720 -18 c0 -14
-46 -53 -53 -45 -4 3 -7 0 -7 -8 0 -8 -11 -19 -24 -25 -23 -11 -24 -10 -16 12
5 13 6 24 2 24 -4 0 1 5 11 11 9 6 26 8 36 4 13 -4 20 0 24 15 5 19 27 29 27
12z m-967 -68 c-4 -12 -8 -13 -14 -3 -9 15 -2 32 11 24 5 -3 6 -13 3 -21z
m837 16 c0 -5 -4 -10 -10 -10 -5 0 -10 5 -10 10 0 6 5 10 10 10 6 0 10 -4 10
-10z m-740 -30 c0 -5 -5 -10 -11 -10 -5 0 -7 5 -4 10 3 6 8 10 11 10 2 0 4 -4
4 -10z m220 0 c0 -5 -4 -10 -10 -10 -5 0 -10 5 -10 10 0 6 5 10 10 10 6 0 10
-4 10 -10z m590 -25 c-7 -9 -15 -13 -17 -11 -7 7 7 26 19 26 6 0 6 -6 -2 -15z
m-630 -45 c0 -5 -4 -10 -10 -10 -5 0 -10 5 -10 10 0 6 5 10 10 10 6 0 10 -4
10 -10z m670 0 c0 -5 -4 -10 -10 -10 -5 0 -10 5 -10 10 0 6 5 10 10 10 6 0 10
-4 10 -10z m-816 -16 c9 -24 2 -26 -12 -4 -7 11 -8 20 -3 20 5 0 12 -7 15 -16z
m-185 -11 c0 -5 -4 -17 -9 -28 -8 -18 -9 -17 -9 8 -1 15 4 27 9 27 6 0 10 -3
9 -7z m249 -28 c-2 -2 -17 -7 -33 -11 -27 -7 -29 -6 -16 10 8 9 20 15 28 12 7
-3 13 2 14 12 1 15 2 15 6 -1 3 -10 3 -20 1 -22z m122 25 c0 -5 -4 -10 -10
-10 -5 0 -10 5 -10 10 0 6 5 10 10 10 6 0 10 -4 10 -10z m-344 -29 c-3 -5 1
-14 9 -21 12 -10 13 -16 4 -26 -19 -23 -29 -16 -25 19 6 40 5 37 12 37 3 0 3
-4 0 -9z m314 -11 c0 -5 -5 -10 -11 -10 -5 0 -7 5 -4 10 3 6 8 10 11 10 2 0 4
-4 4 -10z m-710 -70 c0 -5 -5 -10 -11 -10 -5 0 -7 5 -4 10 3 6 8 10 11 10 2 0
4 -4 4 -10z m570 -85 c0 -2 -8 -1 -17 2 -12 5 -15 2 -10 -10 5 -12 1 -17 -13
-17 -13 0 -18 5 -14 15 4 8 10 15 16 15 5 0 6 5 2 11 -4 8 0 8 15 0 11 -7 21
-14 21 -16z m-600 -40 c0 -8 -4 -17 -10 -20 -6 -4 -10 5 -10 20 0 15 4 24 10
20 6 -3 10 -12 10 -20z m659 -19 c26 -27 20 -37 -6 -11 -12 12 -18 13 -29 4
-11 -9 -14 -8 -14 4 0 8 -3 23 -7 32 -5 14 -3 16 13 7 10 -6 30 -22 43 -36z
m-254 -26 c-11 -33 10 -49 51 -40 25 6 34 5 31 -3 -4 -15 -117 -22 -117 -8 0
5 6 12 13 14 9 4 8 8 -3 16 -13 9 -12 12 5 25 26 20 28 20 20 -4z"/>
<path d="M2235 4449 c-4 -6 -5 -12 -2 -15 2 -3 7 2 10 11 7 17 1 20 -8 4z"/>
<path d="M1627 2295 c-4 -8 -1 -18 5 -21 7 -4 14 -2 16 4 2 7 10 12 18 12 8 0
14 5 14 10 0 16 -47 12 -53 -5z"/>
<path d="M1705 2120 c3 -5 8 -10 11 -10 2 0 4 5 4 10 0 6 -5 10 -11 10 -5 0
-7 -4 -4 -10z"/>
<path d="M1735 2110 c-4 -6 -2 -17 4 -23 15 -15 25 -2 13 19 -7 12 -11 13 -17
4z"/>
<path d="M3465 1590 c3 -5 8 -10 11 -10 2 0 4 5 4 10 0 6 -5 10 -11 10 -5 0
-7 -4 -4 -10z"/>
<path d="M3430 1520 c0 -5 9 -10 20 -10 11 0 20 5 20 10 0 6 -9 10 -20 10 -11
0 -20 -4 -20 -10z"/>
<path d="M3411 1504 c0 -11 3 -14 6 -6 3 7 2 16 -1 19 -3 4 -6 -2 -5 -13z"/>
<path d="M3381 1493 c-7 -8 -10 -17 -7 -20 9 -9 29 13 25 25 -2 6 -10 3 -18
-5z"/>
<path d="M3584 1165 c-3 -8 -4 -20 -2 -27 3 -7 7 -1 10 15 6 29 1 36 -8 12z"/>
<path d="M3640 1142 c0 -12 19 -26 26 -19 2 2 -2 10 -11 17 -9 8 -15 8 -15 2z"/>
<path d="M4210 3782 c0 -5 7 -16 16 -23 14 -12 16 -11 13 5 -4 20 -29 35 -29
18z"/>
<path d="M3707 3613 c-16 -15 -5 -23 33 -23 43 0 54 14 18 24 -30 8 -43 7 -51
-1z"/>
<path d="M3453 2592 c-9 -6 -7 -12 7 -25 26 -22 40 -22 40 0 0 15 2 14 15 -3
8 -10 14 -14 14 -9 0 6 -5 18 -13 27 -10 13 -15 15 -24 6 -9 -9 -12 -9 -12 0
0 14 -10 15 -27 4z"/>
<path d="M3410 2546 c0 -8 4 -17 9 -20 5 -4 7 3 4 14 -6 23 -13 26 -13 6z"/>
<path d="M3440 2551 c0 -10 19 -25 25 -20 1 2 -3 10 -11 17 -8 7 -14 8 -14 3z"/>
<path d="M3790 2410 c0 -5 5 -10 10 -10 6 0 10 5 10 10 0 6 -4 10 -10 10 -5 0
-10 -4 -10 -10z"/>
<path d="M3165 2340 c3 -5 8 -10 11 -10 2 0 4 5 4 10 0 6 -5 10 -11 10 -5 0
-7 -4 -4 -10z"/>
<path d="M3115 2330 c3 -5 11 -10 16 -10 6 0 7 5 4 10 -3 6 -11 10 -16 10 -6
0 -7 -4 -4 -10z"/>
<path d="M3140 2289 c0 -8 5 -21 10 -29 8 -12 9 -10 7 7 -4 26 -17 43 -17 22z"/>
<path d="M2958 2143 c7 -3 16 -2 19 1 4 3 -2 6 -13 5 -11 0 -14 -3 -6 -6z"/>
<path d="M3575 1840 c3 -5 8 -10 11 -10 2 0 4 5 4 10 0 6 -5 10 -11 10 -5 0
-7 -4 -4 -10z"/>
<path d="M3604 1794 c3 -9 6 -21 6 -27 0 -7 4 -7 9 2 10 16 4 41 -11 41 -6 0
-7 -7 -4 -16z"/>
<path d="M4062 1708 c-3 -37 2 -35 12 5 3 15 3 27 -2 27 -4 0 -9 -14 -10 -32z"/>
<path d="M3640 1661 c0 -7 -7 -11 -15 -8 -16 7 -31 -8 -17 -17 12 -7 49 21 39
30 -4 4 -7 2 -7 -5z"/>
<path d="M2868 1398 c18 -18 15 -51 -3 -44 -8 3 -15 2 -15 -3 0 -13 30 -35 37
-27 3 3 1 6 -6 6 -7 0 -9 5 -6 10 4 6 15 8 26 5 13 -4 19 -2 19 9 0 19 -35 56
-52 56 -9 0 -9 -3 0 -12z"/>
<path d="M2856 1292 c-3 -6 -1 -14 5 -17 15 -10 25 3 12 16 -7 7 -13 7 -17 1z"/>
<path d="M2880 1241 c0 -6 5 -13 10 -16 6 -3 10 1 10 9 0 9 -4 16 -10 16 -5 0
-10 -4 -10 -9z"/>
<path d="M4267 1144 c-10 -11 -8 -44 2 -44 6 0 13 4 16 10 8 12 -9 43 -18 34z"/>
<path d="M4162 1105 c-8 -9 -9 -15 -2 -15 6 0 8 -10 4 -25 -5 -20 -3 -24 9
-19 22 8 29 32 17 55 -13 22 -11 22 -28 4z"/>
<path d="M4240 1080 c0 -5 7 -10 15 -10 8 0 15 5 15 10 0 6 -7 10 -15 10 -8 0
-15 -4 -15 -10z"/>
<path d="M3201 604 c0 -11 3 -14 6 -6 3 7 2 16 -1 19 -3 4 -6 -2 -5 -13z"/>
<path d="M2863 254 c-9 -25 13 -40 26 -16 10 19 6 32 -11 32 -5 0 -11 -7 -15
-16z"/>
</g>
</svg>
