<?xml version="1.0" standalone="no"?>
  <!DOCTYPE svg PUBLIC "-//W3C//DTD SVG 1.1//EN" "http://www.w3.org/Graphics/SVG/1.1/DTD/svg11.dtd" >
  <svg>
  <metadata>
  Created by font-carrier
  </metadata>
  <defs>
  <font id="ZenDots-Regular" horiz-adv-x="1445" vert-adv-y="1445" >
    <font-face
      
      font-family="Zen Dots"
      
      font-weight="400"
      
      font-stretch="normal"
      
      units-per-em="1000"
      
      ascent="930"
      
      descent="-270"
      
    />
      <missing-glyph />

      

      
      <glyph glyph-name="uni21" unicode="&#x21;" d="M70 211L70 713L230 713L230 211L70 211M70 0L70 143L230 143L230 0L70 0Z"  horiz-adv-x="300" vert-adv-y="1000"  />

      
      <glyph glyph-name="uni22" unicode="&#x22;" d="M60 419L60 713L180 713L180 419L60 419M250 419L250 713L370 713L370 419L250 419Z"  horiz-adv-x="430" vert-adv-y="1000"  />

      
      <glyph glyph-name="uni23" unicode="&#x23;" d="M160 0L190 195L40 195L58 310L207 310L221 400L71 400L89 515L239 515L269 713L395 713L365 515L510 515L540 713L666 713L636 515L786 515L768 400L618 400L604 310L754 310L737 195L587 195L557 0L431 0L461 195L316 195L286 0L160 0M333 310L478 310L492 400L347 400L333 310Z"  horiz-adv-x="826" vert-adv-y="1000"  />

      
      <glyph glyph-name="uni24" unicode="&#x24;" d="M38 95L38 210L312 210L312 303L211 303Q122 303 76 343.50Q30 384 30 460Q30 537 76.50 578.50Q123 620 211 620L312 620L312 805L432 805L432 620L667 620L667 505L432 505L432 418L554 418Q632 418 673.50 377.50Q715 337 715 260Q715 182 673 138.50Q631 95 554 95L432 95L432-91L312-91L312 95L38 95M218 418L312 418L312 505L218 505Q175 505 175 463Q175 442 187 430Q199 418 218 418M528 303L432 303L432 210L528 210Q570 210 570 257Q570 303 528 303Z"  horiz-adv-x="745" vert-adv-y="1000"  />

      
      <glyph glyph-name="uni25" unicode="&#x25;" d="M181 0L731 713L883 713L333 0L181 0M215 357Q127 357 78.50 405.50Q30 454 30 535Q30 616 78.50 664.50Q127 713 215 713L278 713Q366 713 414.50 664.50Q463 616 463 535Q463 454 414.50 405.50Q366 357 278 357L215 357M235 453L258 453Q297 453 316.50 474.50Q336 496 336 535Q336 574 316.50 595.50Q297 617 258 617L235 617Q196 617 176.50 595.50Q157 574 157 535Q157 496 176.50 474.50Q196 453 235 453M777 0Q689 0 640.50 48.50Q592 97 592 178Q592 259 640.50 307.50Q689 356 777 356L840 356Q928 356 976.50 307.50Q1025 259 1025 178Q1025 97 976.50 48.50Q928 0 840 0L777 0M797 96L820 96Q859 96 878.50 117.50Q898 139 898 178Q898 217 878.50 238.50Q859 260 820 260L797 260Q758 260 738.50 238.50Q719 217 719 178Q719 139 738.50 117.50Q758 96 797 96Z"  horiz-adv-x="1065" vert-adv-y="1000"  />

      
      <glyph glyph-name="uni26" unicode="&#x26;" d="M214 0Q153 0 112 21Q71 42 50.50 76Q30 110 30 150Q30 185 46 221.50Q62 258 93 289L259 455Q247 471 240 491Q233 511 233 537Q233 581 257.50 622Q282 663 330.50 689Q379 715 449 715L598 715Q702 715 758 658Q814 601 814 506L649 506Q649 585 567 585L483 585Q446 585 429 568.50Q412 552 412 531Q412 519 418.50 506Q425 493 438 482L667 289L802 424L1008 424L778 195L1008 0L782 0L675 92L582 0L214 0M254 130L508 130L565 187L367 358L220 212Q210 203 206 193Q202 183 202 173Q202 156 215.50 143Q229 130 254 130Z"  horiz-adv-x="1028" vert-adv-y="1000"  />

      
      <glyph glyph-name="uni27" unicode="&#x27;" d="M60 419L60 713L180 713L180 419L60 419Z"  horiz-adv-x="240" vert-adv-y="1000"  />

      
      <glyph glyph-name="uni28" unicode="&#x28;" d="M256-193Q169-93 124.50 26Q80 145 80 275Q80 538 256 743L377 743Q295 643 252.50 524.50Q210 406 210 275Q210 144 252.50 25Q295-94 377-193L256-193Z"  horiz-adv-x="397" vert-adv-y="1000"  />

      
      <glyph glyph-name="uni29" unicode="&#x29;" d="M141-193Q228-93 272.50 26Q317 145 317 275Q317 538 141 743L20 743Q102 643 144.50 524.50Q187 406 187 275Q187 144 144.50 25Q102-94 20-193L141-193Z"  horiz-adv-x="397" vert-adv-y="1000"  />

      
      <glyph glyph-name="uni2a" unicode="&#x2a;" d="M173 282L98 337L192 466L40 515L69 603L221 554L221 713L313 713L313 554L465 603L493 515L341 466L435 337L360 282L266 411L173 282Z"  horiz-adv-x="533" vert-adv-y="1000"  />

      
      <glyph glyph-name="uni2b" unicode="&#x2b;" d="M40 234L40 349L269 349L269 582L394 582L394 349L622 349L622 234L394 234L394 0L269 0L269 234L40 234Z"  horiz-adv-x="662" vert-adv-y="1000"  />

      
      <glyph glyph-name="uni2c" unicode="&#x2c;" d="M131-151L131 0L60 0L60 143L222 143L222-151L131-151Z"  horiz-adv-x="284" vert-adv-y="1000"  />

      
      <glyph glyph-name="uni2d" unicode="&#x2d;" d="M40 234L40 349L346 349L346 234L40 234Z"  horiz-adv-x="386" vert-adv-y="1000"  />

      
      <glyph glyph-name="uni2e" unicode="&#x2e;" d="M60 0L60 143L220 143L220 0L60 0Z"  horiz-adv-x="282" vert-adv-y="1000"  />

      
      <glyph glyph-name="uni2f" unicode="&#x2f;" d="M5-193L475 743L604 743L134-193L5-193Z"  horiz-adv-x="609" vert-adv-y="1000"  />

      
      <glyph glyph-name="uni30" unicode="&#x30;" d="M448-5Q255-5 147.50 86.50Q40 178 40 358Q40 537 147.50 628.50Q255 720 448 720L578 720Q772 720 879 628.50Q986 537 986 358Q986 178 879 86.50Q772-5 578-5L448-5M203 358Q203 249 256 192L648 583Q612 590 567 590L459 590Q333 590 268 535Q203 480 203 358M459 125L567 125Q693 125 758 180.50Q823 236 823 358Q823 467 769 524L376 132Q413 125 459 125Z"  horiz-adv-x="1026" vert-adv-y="1000"  />

      
      <glyph glyph-name="uni31" unicode="&#x31;" d="M222 0L222 583L10 583L10 713L377 713L377 0L222 0Z"  horiz-adv-x="447" vert-adv-y="1000"  />

      
      <glyph glyph-name="uni32" unicode="&#x32;" d="M30 0L30 212Q30 312 86 367Q142 422 249 422L578 422Q673 422 673 503Q673 584 578 584L46 584L46 714L609 714Q713 714 770.50 658Q828 602 828 503Q828 404 770.50 348Q713 292 609 292L271 292Q228 292 206.50 270.50Q185 249 185 210L185 129L809 129L809 0L30 0Z"  horiz-adv-x="858" vert-adv-y="1000"  />

      
      <glyph glyph-name="uni33" unicode="&#x33;" d="M30 0L30 130L580 130Q618 130 637 151.50Q656 173 656 211Q656 250 637 272Q618 294 580 294L124 294L124 423L579 423Q656 423 656 504Q656 584 579 584L30 584L30 714L609 714Q713 714 770.50 662.50Q828 611 828 519Q828 469 809 424.50Q790 380 746 359Q790 337 809 294.50Q828 252 828 201Q828 110 770.50 55Q713 0 609 0L30 0Z"  horiz-adv-x="858" vert-adv-y="1000"  />

      
      <glyph glyph-name="uni34" unicode="&#x34;" d="M40 131L40 262L416 714L613 714L231 261L617 261L617 425L772 425L772 261L940 261L940 131L772 131L772 0L617 0L617 131L40 131Z"  horiz-adv-x="965" vert-adv-y="1000"  />

      
      <glyph glyph-name="uni35" unicode="&#x35;" d="M70 0L70 130L601 130Q696 130 696 211Q696 292 601 292L70 292L70 714L822 714L822 585L225 585L225 422L632 422Q736 422 793.50 366Q851 310 851 211Q851 112 793.50 56Q736 0 632 0L70 0Z"  horiz-adv-x="881" vert-adv-y="1000"  />

      
      <glyph glyph-name="uni36" unicode="&#x36;" d="M368-1Q212-1 126 93.50Q40 188 40 358Q40 543 147.50 629Q255 715 448 715L851 715L851 585L459 585Q350 585 286.50 548.50Q223 512 208 421L675 421Q786 421 850 365.50Q914 310 914 212Q914 111 850 55Q786-1 675-1L368-1M379 129L644 129Q699 129 729 149.50Q759 170 759 211Q759 251 729 271Q699 291 644 291L208 291Q231 129 379 129Z"  horiz-adv-x="944" vert-adv-y="1000"  />

      
      <glyph glyph-name="uni37" unicode="&#x37;" d="M169 0L653 583L35 583L35 713L845 713L845 582L362 0L169 0Z"  horiz-adv-x="860" vert-adv-y="1000"  />

      
      <glyph glyph-name="uni38" unicode="&#x38;" d="M289 0Q186 0 128 58Q70 116 70 211Q70 311 131 370Q90 423 90 505Q90 600 148 657Q206 714 309 714L703 714Q807 714 864.50 657Q922 600 922 505Q922 423 881 370Q942 312 942 211Q942 116 884.50 58Q827 0 723 0L289 0M340 426L672 426Q751 426 751 506Q751 582 672 582L340 582Q261 582 261 506Q261 426 340 426M320 131L692 131Q771 131 771 212Q771 294 692 294L320 294Q242 294 242 212Q242 131 320 131Z"  horiz-adv-x="1012" vert-adv-y="1000"  />

      
      <glyph glyph-name="uni39" unicode="&#x39;" d="M93 0L93 132L519 132Q609 132 661 174Q713 216 727 293L249 293Q146 293 88 350Q30 407 30 502Q30 598 88 655.50Q146 713 249 713L533 713Q650 713 733 669Q816 625 860 545Q904 465 904 357Q904 249 860 169Q816 89 733 44.50Q650 0 533 0L93 0M280 423L727 423Q712 500 659.50 541Q607 582 517 582L280 582Q202 582 202 502Q202 423 280 423Z"  horiz-adv-x="944" vert-adv-y="1000"  />

      
      <glyph glyph-name="uni3a" unicode="&#x3a;" d="M60 0L60 143L220 143L220 0L60 0M60 372L60 515L220 515L220 372L60 372Z"  horiz-adv-x="282" vert-adv-y="1000"  />

      
      <glyph glyph-name="uni3b" unicode="&#x3b;" d="M60 372L60 515L220 515L220 372L60 372M131-151L131 0L60 0L60 143L222 143L222-151L131-151Z"  horiz-adv-x="284" vert-adv-y="1000"  />

      
      <glyph glyph-name="uni3c" unicode="&#x3c;" d="M717 20L40 234L40 349L717 562L717 440L217 291L717 142L717 20Z"  horiz-adv-x="757" vert-adv-y="1000"  />

      
      <glyph glyph-name="uni3d" unicode="&#x3d;" d="M40 350L40 465L622 465L622 350L40 350M40 118L40 233L622 233L622 118L40 118Z"  horiz-adv-x="662" vert-adv-y="1000"  />

      
      <glyph glyph-name="uni3e" unicode="&#x3e;" d="M40 562L717 348L717 233L40 20L40 142L540 291L40 440L40 562Z"  horiz-adv-x="757" vert-adv-y="1000"  />

      
      <glyph glyph-name="uni3f" unicode="&#x3f;" d="M70 211L70 421L446 421Q522 421 522 502Q522 583 446 583L70 583L70 713L466 713Q570 713 627.50 655.50Q685 598 685 503Q685 408 627.50 349.50Q570 291 466 291L230 291L230 211L70 211M70 0L70 143L230 143L230 0L70 0Z"  horiz-adv-x="715" vert-adv-y="1000"  />

      
      <glyph glyph-name="uni40" unicode="&#x40;" d="M448-130Q316-130 222.50-80Q129-30 79.50 60.50Q30 151 30 272Q30 394 79.50 484.50Q129 575 222.50 625Q316 675 448 675L735 675Q866 675 959.50 635.50Q1053 596 1103 521.50Q1153 447 1153 341Q1153 257 1121 192.50Q1089 128 1027 91.50Q965 55 876 55L432 55Q360 55 323 89.50Q286 124 286 188Q286 252 323 286.50Q360 321 432 321L752 321L752 341Q752 392 701 392L342 392L342 490L733 490Q807 490 841.50 453Q876 416 876 357L876 153Q953 155 991.50 204Q1030 253 1030 341Q1030 463 956.50 519Q883 575 739 575L444 575Q298 575 225.50 497Q153 419 153 272Q153 126 225.50 48Q298-30 444-30L752-30L752-130L448-130M459 153L752 153L752 224L459 224Q435 224 425 214.50Q415 205 415 188Q415 172 425 162.50Q435 153 459 153Z"  horiz-adv-x="1183" vert-adv-y="1000"  />

      
      <glyph glyph-name="uni41" unicode="&#x41;" d="M10 0L332 715L579 715L901 0L727 0L659 151L252 151L184 0L10 0M310 281L601 281L462 590L449 590L310 281Z"  horiz-adv-x="911" vert-adv-y="1000"  />

      
      <glyph glyph-name="uni42" unicode="&#x42;" d="M70 0L70 713L672 715Q791 715 848.50 665.50Q906 616 906 517Q906 418 840 372Q884 348 905 308.50Q926 269 926 207Q926 106 868.50 53.50Q811 1 692 1L70 0M653 587L230 587L230 427L653 427Q744 427 744 509Q744 587 653 587M673 299L230 299L230 129L673 129Q764 129 764 215Q764 299 673 299Z"  horiz-adv-x="966" vert-adv-y="1000"  />

      
      <glyph glyph-name="uni43" unicode="&#x43;" d="M438-5Q240-5 135 86.50Q30 178 30 358Q30 537 135 629Q240 721 438 720L798 718L798 590L449 590Q319 590 256 535Q193 480 193 358Q193 236 256 180.50Q319 125 449 125L808 125L808-5L438-5Z"  horiz-adv-x="838" vert-adv-y="1000"  />

      
      <glyph glyph-name="uni44" unicode="&#x44;" d="M70 0L70 715L188 715L508 716Q702 716 809 625Q916 534 916 358Q916 182 809 91Q702 0 508 0L70 0M497 586L230 586L230 130L497 130Q623 130 688 185Q753 240 753 358Q753 477 688 531.50Q623 586 497 586Z"  horiz-adv-x="946" vert-adv-y="1000"  />

      
      <glyph glyph-name="uni45" unicode="&#x45;" d="M70 0L70 715L854 715L854 585L230 585L230 427L796 427L796 297L230 297L230 130L854 130L854 0L70 0Z"  horiz-adv-x="894" vert-adv-y="1000"  />

      
      <glyph glyph-name="uni46" unicode="&#x46;" d="M70 0L70 715L834 715L834 585L230 585L230 387L756 387L756 257L230 257L230 0L70 0Z"  horiz-adv-x="874" vert-adv-y="1000"  />

      
      <glyph glyph-name="uni47" unicode="&#x47;" d="M418-5Q235-5 132.50 86.50Q30 178 30 358Q30 537 134.50 628.50Q239 720 438 720L818 720L818 590L449 590Q318 590 255.50 535Q193 480 193 358Q193 242 248 186.50Q303 131 409 126L409 404L857 404L857-5L418-5M559 125L697 125L697 274L559 274L559 125Z"  horiz-adv-x="927" vert-adv-y="1000"  />

      
      <glyph glyph-name="uni48" unicode="&#x48;" d="M70 0L70 715L230 715L230 422L734 422L734 715L894 715L894 0L734 0L734 292L230 292L230 0L70 0Z"  horiz-adv-x="964" vert-adv-y="1000"  />

      
      <glyph glyph-name="uni49" unicode="&#x49;" d="M70 0L70 715L230 715L230 0L70 0Z"  horiz-adv-x="300" vert-adv-y="1000"  />

      
      <glyph glyph-name="uni4a" unicode="&#x4a;" d="M309-5Q161-5 91.50 47.50Q22 100 22 209Q22 235 28 262L188 262Q186 249 185 237Q184 225 184 217Q184 162 225 143.50Q266 125 336 125L399 125Q484 125 519.50 152.50Q555 180 555 256L555 715L715 715L715 256Q715 168 688 110Q661 52 598 23.50Q535-5 426-5L309-5Z"  horiz-adv-x="785" vert-adv-y="1000"  />

      
      <glyph glyph-name="uni4b" unicode="&#x4b;" d="M70 0L70 713L230 713L230 422L468 422L703 713L902 713L608 357L902 0L703 0L467 292L230 292L230 0L70 0Z"  horiz-adv-x="912" vert-adv-y="1000"  />

      
      <glyph glyph-name="uni4c" unicode="&#x4c;" d="M70 0L70 715L230 715L230 130L753 130L753 0L70 0Z"  horiz-adv-x="783" vert-adv-y="1000"  />

      
      <glyph glyph-name="uni4d" unicode="&#x4d;" d="M70 0L70 715L204 715L535 483L540 483L871 715L1005 715L1005 0L845 0L845 515L618 363L618 0L458 0L458 363L230 515L230 0L70 0Z"  horiz-adv-x="1075" vert-adv-y="1000"  />

      
      <glyph glyph-name="uni4e" unicode="&#x4e;" d="M70 0L70 715L232 715L738 201L738 715L898 715L898 0L736 0L230 515L230 0L70 0Z"  horiz-adv-x="968" vert-adv-y="1000"  />

      
      <glyph glyph-name="uni4f" unicode="&#x4f;" d="M431-5Q240-5 135 86.50Q30 178 30 358Q30 537 135 628.50Q240 720 438 720L618 720Q816 720 921 628.50Q1026 537 1026 358Q1026 178 921 86.50Q816-5 623-5L431-5M449 590Q338 590 276 550Q214 510 198 423L858 423Q842 510 780 550Q718 590 607 590L449 590M452 125L607 125Q719 125 780.50 165Q842 205 858 293L198 293Q214 205 276 165Q338 125 452 125Z"  horiz-adv-x="1056" vert-adv-y="1000"  />

      
      <glyph glyph-name="uni50" unicode="&#x50;" d="M70 0L70 715L669 715Q780 715 841.50 659Q903 603 903 489Q903 375 841.50 319Q780 263 669 263L230 263L230 0L70 0M650 585L230 585L230 394L650 393Q694 393 717.50 415Q741 437 741 489Q741 542 717.50 563.50Q694 585 650 585Z"  horiz-adv-x="933" vert-adv-y="1000"  />

      
      <glyph glyph-name="uni51" unicode="&#x51;" d="M431-5Q240-5 135 86.50Q30 178 30 358Q30 537 135 628.50Q240 720 438 720L618 720Q816 720 921 628.50Q1026 537 1026 358Q1026 178 921 86.50Q816-5 623-5L610-5L610-110L450-110L450-5L431-5M610 250L610 125Q739 126 801 181Q863 236 863 358Q863 480 800.50 535Q738 590 607 590L449 590Q319 590 256 535Q193 480 193 358Q193 236 256 180.50Q319 125 450 125L450 250L610 250Z"  horiz-adv-x="1056" vert-adv-y="1000"  />

      
      <glyph glyph-name="uni52" unicode="&#x52;" d="M70 0L70 715L669 715Q780 715 841.50 659Q903 603 903 489Q903 392 858 337Q813 282 730 268L895 0L713 0L560 263L230 263L230 0L70 0M650 585L230 585L230 394L650 393Q694 393 717.50 415Q741 437 741 489Q741 542 717.50 563.50Q694 585 650 585Z"  horiz-adv-x="953" vert-adv-y="1000"  />

      
      <glyph glyph-name="uni53" unicode="&#x53;" d="M47-5L47 125L622 124Q666 124 689.50 144.50Q713 165 713 211Q713 257 689.50 277.50Q666 298 622 298L264 298Q153 298 91.50 351.50Q30 405 30 509Q30 613 91.50 666.50Q153 720 264 720L826 720L826 590L281 591Q238 591 214 571.50Q190 552 190 509Q190 466 214 446.50Q238 427 281 427L639 427Q750 427 811.50 372.50Q873 318 873 211Q873 105 811.50 50Q750-5 639-5L47-5Z"  horiz-adv-x="903" vert-adv-y="1000"  />

      
      <glyph glyph-name="uni54" unicode="&#x54;" d="M45 353L45 715L925 715L925 353L763 353L763 585L545 585L545 0L385 0L385 585L207 585L207 353L45 353Z"  horiz-adv-x="970" vert-adv-y="1000"  />

      
      <glyph glyph-name="uni55" unicode="&#x55;" d="M359-5Q250-5 187 23.50Q124 52 97 110Q70 168 70 256L70 715L230 715L230 256Q230 180 265.50 152.50Q301 125 386 125L579 125Q664 125 699.50 152.50Q735 180 735 256L735 715L895 715L895 256Q895 168 868 110Q841 52 778 23.50Q715-5 606-5L359-5Z"  horiz-adv-x="965" vert-adv-y="1000"  />

      
      <glyph glyph-name="uni56" unicode="&#x56;" d="M322 0L0 715L174 715L439 125L452 125L717 715L891 715L569 0L322 0Z"  horiz-adv-x="891" vert-adv-y="1000"  />

      
      <glyph glyph-name="uni57" unicode="&#x57;" d="M130 0L50 715L210 715L269 193L468 346L468 715L628 715L628 345L825 193L885 715L1045 715L965 0L831 0L548 229L264 0L130 0Z"  horiz-adv-x="1095" vert-adv-y="1000"  />

      
      <glyph glyph-name="uni58" unicode="&#x58;" d="M10 0L278 357L10 715L205 715L420 422L512 422L727 715L922 715L654 357L922 0L726 0L512 292L420 292L206 0L10 0Z"  horiz-adv-x="932" vert-adv-y="1000"  />

      
      <glyph glyph-name="uni59" unicode="&#x59;" d="M379 0L379 255L0 715L198 715L459 391L719 715L917 715L540 256L540 0L379 0Z"  horiz-adv-x="917" vert-adv-y="1000"  />

      
      <glyph glyph-name="uni5a" unicode="&#x5a;" d="M30 0L30 121L567 583L53 583L53 713L799 713L799 592L261 130L797 130L797 0L30 0Z"  horiz-adv-x="829" vert-adv-y="1000"  />

      
      <glyph glyph-name="uni5b" unicode="&#x5b;" d="M70-193L70 743L342 743L342 638L190 638L190-88L342-88L342-193L70-193Z"  horiz-adv-x="352" vert-adv-y="1000"  />

      
      <glyph glyph-name="uni5c" unicode="&#x5c;" d="M604-193L134 743L5 743L475-193L604-193Z"  horiz-adv-x="609" vert-adv-y="1000"  />

      
      <glyph glyph-name="uni5d" unicode="&#x5d;" d="M282-193L282 743L10 743L10 638L162 638L162-88L10-88L10-193L282-193Z"  horiz-adv-x="352" vert-adv-y="1000"  />

      
      <glyph glyph-name="uni5e" unicode="&#x5e;" d="M20 292L265 713L436 713L681 292L542 292L350 633L158 292L20 292Z"  horiz-adv-x="701" vert-adv-y="1000"  />

      
      <glyph glyph-name="uni5f" unicode="&#x5f;" d="M40-121L40-5L656-5L656-121L40-121Z"  horiz-adv-x="696" vert-adv-y="1000"  />

      
      <glyph glyph-name="uni60" unicode="&#x60;" d="M272 580L60 730L237 730L417 580L272 580Z"  horiz-adv-x="477" vert-adv-y="1000"  />

      
      <glyph glyph-name="uni61" unicode="&#x61;" d="M192 0Q111 0 68 41Q25 82 25 158Q25 233 68 274Q111 315 192 315L576 315L576 339Q576 400 516 400L92 400L92 515L554 515Q645 515 683 473.50Q721 432 721 357L721 0L192 0M218 115L576 115L576 200L218 200Q199 200 188.50 188.50Q178 177 178 158Q178 139 188.50 127Q199 115 218 115Z"  horiz-adv-x="776" vert-adv-y="1000"  />

      
      <glyph glyph-name="uni62" unicode="&#x62;" d="M55 0L55 715L200 715L200 0L55 0M80 0L80 115L425 115Q490 115 524.50 150.50Q559 186 559 257Q559 329 524.50 364.50Q490 400 425 400L90 400L90 515L425 515Q559 515 634 449Q709 383 709 257Q709 132 634 66Q559 0 425 0L80 0Z"  horiz-adv-x="744" vert-adv-y="1000"  />

      
      <glyph glyph-name="uni63" unicode="&#x63;" d="M319-5Q185-5 110 61.50Q35 128 35 257Q35 387 110 453.50Q185 520 319 520L654 520L654 405L319 405Q254 405 219.50 369Q185 333 185 257Q185 182 219.50 146Q254 110 319 110L664 110L664-5L319-5Z"  horiz-adv-x="684" vert-adv-y="1000"  />

      
      <glyph glyph-name="uni64" unicode="&#x64;" d="M689 0L689 715L544 715L544 0L689 0M664 0L664 115L319 115Q254 115 219.50 150.50Q185 186 185 257Q185 329 219.50 364.50Q254 400 319 400L654 400L654 515L319 515Q185 515 110 449Q35 383 35 257Q35 132 110 66Q185 0 319 0L664 0Z"  horiz-adv-x="744" vert-adv-y="1000"  />

      
      <glyph glyph-name="uni65" unicode="&#x65;" d="M319-5Q185-5 110 61.50Q35 128 35 257Q35 387 110 453.50Q185 520 319 520L569 520Q657 520 703.50 478.50Q750 437 750 360Q750 203 569 203L191 203Q212 110 319 110L724 110L724-5L319-5M319 405Q216 405 192 318L562 318Q582 318 593.50 330Q605 342 605 363Q605 405 562 405L319 405Z"  horiz-adv-x="785" vert-adv-y="1000"  />

      
      <glyph glyph-name="uni66" unicode="&#x66;" d="M169 0L169 400L20 400L20 515L169 515L169 555Q169 626 210 669.50Q251 713 338 713L556 713L556 598L374 598Q314 598 314 537L314 515L528 515L528 400L314 400L314 0L169 0Z"  horiz-adv-x="566" vert-adv-y="1000"  />

      
      <glyph glyph-name="uni67" unicode="&#x67;" d="M177-225L177-110L479-110Q539-110 539-49L539 0L319 0Q185 0 110 66Q35 132 35 257Q35 383 110 449Q185 515 319 515L684 515L684-67Q684-138 643-181.50Q602-225 515-225L177-225M319 115L539 115L539 400L319 400Q254 400 219.50 364.50Q185 329 185 257Q185 186 219.50 150.50Q254 115 319 115Z"  horiz-adv-x="739" vert-adv-y="1000"  />

      
      <glyph glyph-name="uni68" unicode="&#x68;" d="M55 0L55 715L200 715L200 515L504 515Q592 515 632.50 471.50Q673 428 673 357L673 0L528 0L528 340Q528 400 468 400L200 400L200 0L55 0Z"  horiz-adv-x="723" vert-adv-y="1000"  />

      
      <glyph glyph-name="uni69" unicode="&#x69;" d="M55 0L55 515L200 515L200 0L55 0M54 600L54 713L201 713L201 600L54 600Z"  horiz-adv-x="255" vert-adv-y="1000"  />

      
      <glyph glyph-name="uni6a" unicode="&#x6a;" d="M51-225L51 515L196 515L196-225L51-225M50 600L50 713L197 713L197 600L50 600Z"  horiz-adv-x="247" vert-adv-y="1000"  />

      
      <glyph glyph-name="uni6b" unicode="&#x6b;" d="M55 0L55 715L200 715L200 515L546 515Q634 515 680.50 473.50Q727 432 727 355Q727 229 607 205L729 0L566 0L448 199L200 199L200 0L55 0M539 401L200 401L200 313L539 313Q559 313 570.50 325Q582 337 582 358Q582 401 539 401Z"  horiz-adv-x="764" vert-adv-y="1000"  />

      
      <glyph glyph-name="uni6c" unicode="&#x6c;" d="M55 0L55 715L200 715L200 0L55 0Z"  horiz-adv-x="255" vert-adv-y="1000"  />

      
      <glyph glyph-name="uni6d" unicode="&#x6d;" d="M55 0L55 515L722 515Q810 515 851 471.50Q892 428 892 357L892 0L747 0L747 339Q747 400 685 400L546 400L546 0L401 0L401 400L200 400L200 0L55 0Z"  horiz-adv-x="942" vert-adv-y="1000"  />

      
      <glyph glyph-name="uni6e" unicode="&#x6e;" d="M55 0L55 515L504 515Q592 515 632.50 471.50Q673 428 673 357L673 0L528 0L528 340Q528 400 468 400L200 400L200 0L55 0Z"  horiz-adv-x="723" vert-adv-y="1000"  />

      
      <glyph glyph-name="uni6f" unicode="&#x6f;" d="M319-5Q185-5 110 61.50Q35 128 35 257Q35 387 110 453.50Q185 520 319 520L504 520Q638 520 713 453.50Q788 387 788 257Q788 128 713 61.50Q638-5 504-5L319-5M319 110L504 110Q569 110 603.50 146Q638 182 638 257Q638 333 603.50 369Q569 405 504 405L319 405Q254 405 219.50 369Q185 333 185 257Q185 182 219.50 146Q254 110 319 110Z"  horiz-adv-x="823" vert-adv-y="1000"  />

      
      <glyph glyph-name="uni70" unicode="&#x70;" d="M55-225L55 515L425 515Q559 515 634 449Q709 383 709 258Q709 132 634 66Q559 0 425 0L200 0L200-225L55-225M425 400L200 400L200 115L425 115Q490 115 524.50 150.50Q559 186 559 258Q559 329 524.50 364.50Q490 400 425 400Z"  horiz-adv-x="744" vert-adv-y="1000"  />

      
      <glyph glyph-name="uni71" unicode="&#x71;" d="M689-225L689 515L319 515Q185 515 110 449Q35 383 35 258Q35 132 110 66Q185 0 319 0L544 0L544-225L689-225M319 400L544 400L544 115L319 115Q254 115 219.50 150.50Q185 186 185 258Q185 329 219.50 364.50Q254 400 319 400Z"  horiz-adv-x="744" vert-adv-y="1000"  />

      
      <glyph glyph-name="uni72" unicode="&#x72;" d="M55 0L55 515L449 515Q536 515 577 471.50Q618 428 618 357L618 250L471 250L471 339Q471 399 411 399L202 399L202 0L55 0Z"  horiz-adv-x="643" vert-adv-y="1000"  />

      
      <glyph glyph-name="uni73" unicode="&#x73;" d="M38-5L38 110L528 110Q570 110 570 157Q570 203 528 203L211 203Q122 203 76 243.50Q30 284 30 360Q30 437 76.50 478.50Q123 520 211 520L667 520L667 405L218 405Q175 405 175 363Q175 342 187 330Q199 318 218 318L554 318Q632 318 673.50 277.50Q715 237 715 160Q715 82 673 38.50Q631-5 554-5L38-5Z"  horiz-adv-x="745" vert-adv-y="1000"  />

      
      <glyph glyph-name="uni74" unicode="&#x74;" d="M323 0Q236 0 195 43.50Q154 87 154 158L154 400L5 400L5 515L154 515L154 673L299 673L299 515L513 515L513 400L299 400L299 176Q299 115 359 115L541 115L541 0L323 0Z"  horiz-adv-x="561" vert-adv-y="1000"  />

      
      <glyph glyph-name="uni75" unicode="&#x75;" d="M219 0Q131 0 90.50 44Q50 88 50 158L50 515L195 515L195 175Q195 115 255 115L463 115Q523 115 523 175L523 515L668 515L668 158Q668 88 627.50 44Q587 0 499 0L219 0Z"  horiz-adv-x="718" vert-adv-y="1000"  />

      
      <glyph glyph-name="uni76" unicode="&#x76;" d="M227 0L10 515L162 515L330 116L380 116L548 515L700 515L483 0L227 0Z"  horiz-adv-x="710" vert-adv-y="1000"  />

      
      <glyph glyph-name="uni77" unicode="&#x77;" d="M79 0L30 515L176 515L210 124L365 194L365 515L510 515L510 193L665 124L699 515L845 515L796 0L659 0L437 98L216 0L79 0Z"  horiz-adv-x="875" vert-adv-y="1000"  />

      
      <glyph glyph-name="uni78" unicode="&#x78;" d="M10 0L204 257L10 514L180 514L329 315L402 315L552 514L721 514L528 257L721 0L552 0L401 200L329 200L180 0L10 0Z"  horiz-adv-x="731" vert-adv-y="1000"  />

      
      <glyph glyph-name="uni79" unicode="&#x79;" d="M171-225L171-110L473-110Q533-110 533-49L533 0L224 0Q136 0 95.50 44Q55 88 55 158L55 515L200 515L200 175Q200 115 260 115L528 115L528 515L678 515L678-67Q678-138 637-181.50Q596-225 509-225L171-225Z"  horiz-adv-x="733" vert-adv-y="1000"  />

      
      <glyph glyph-name="uni7a" unicode="&#x7a;" d="M40 0L40 106L446 400L57 400L57 515L658 515L658 409L252 115L658 115L658 0L40 0Z"  horiz-adv-x="698" vert-adv-y="1000"  />

      
      <glyph glyph-name="uni7b" unicode="&#x7b;" d="M340-193Q252-193 210.50-149Q169-105 169-35L169 133Q169 223 100 223L40 223L40 327L100 327Q169 327 169 417L169 585Q169 656 210.50 699.50Q252 743 340 743L443 743L443 638L347 638Q316 638 302.50 622.50Q289 607 289 575L289 391Q289 338 268 311.50Q247 285 203 275Q247 265 268 238.50Q289 212 289 159L289-25Q289-57 302.50-72.50Q316-88 347-88L443-88L443-193L340-193Z"  horiz-adv-x="453" vert-adv-y="1000"  />

      
      <glyph glyph-name="uni7c" unicode="&#x7c;" d="M70-193L70 743L190 743L190-193L70-193Z"  horiz-adv-x="260" vert-adv-y="1000"  />

      
      <glyph glyph-name="uni7d" unicode="&#x7d;" d="M113-193Q201-193 242.50-149Q284-105 284-35L284 133Q284 223 353 223L413 223L413 327L353 327Q284 327 284 417L284 585Q284 656 242.50 699.50Q201 743 113 743L10 743L10 638L106 638Q137 638 150.50 622.50Q164 607 164 575L164 391Q164 338 185 311.50Q206 285 250 275Q206 265 185 238.50Q164 212 164 159L164-25Q164-57 150.50-72.50Q137-88 106-88L10-88L10-193L113-193Z"  horiz-adv-x="453" vert-adv-y="1000"  />

      
      <glyph glyph-name="uni7e" unicode="&#x7e;" d="M40 120L40 193Q40 268 82.50 308.50Q125 349 201 349L467 349Q486 349 496 360.50Q506 372 506 391L506 463L622 463L622 391Q622 316 580 275Q538 234 461 234L195 234Q176 234 166 223Q156 212 156 193L156 120L40 120Z"  horiz-adv-x="662" vert-adv-y="1000"  />

      
      <glyph glyph-name="unia2" unicode="&#xa2;" d="M319 95Q185 95 110 161.50Q35 228 35 357Q35 487 110 553.50Q185 620 319 620L352 620L352 805L472 805L472 620L654 620L654 505L472 505L472 210L664 210L664 95L472 95L472-91L352-91L352 95L319 95M319 210L352 210L352 505L319 505Q254 505 219.50 469Q185 433 185 357Q185 282 219.50 246Q254 210 319 210Z"  horiz-adv-x="684" vert-adv-y="1000"  />

      
      <glyph glyph-name="uni2022" unicode="&#x2022;" d="M248 178Q199 178 158.50 202Q118 226 94 267Q70 308 70 357Q70 406 94 446.50Q118 487 158.50 511Q199 535 248 535Q298 535 338.50 511Q379 487 403 446.50Q427 406 427 357Q427 308 403 267Q379 226 338.50 202Q298 178 248 178Z"  horiz-adv-x="497" vert-adv-y="1000"  />

      
      <glyph glyph-name="uniae" unicode="&#xae;" d="M447-60Q357-60 280.50-27.50Q204 5 148 62Q92 119 61 194.50Q30 270 30 357Q30 444 61 519.50Q92 595 148 652Q204 709 280.50 741.50Q357 774 447 774Q537 774 613.50 741.50Q690 709 746 652Q802 595 833 519.50Q864 444 864 357Q864 270 833 194.50Q802 119 746 62Q690 5 613.50-27.50Q537-60 447-60M447 15Q550 15 624.50 57.50Q699 100 740 177Q781 254 781 357Q781 460 740 537Q699 614 624.50 656.50Q550 699 447 699Q345 699 270 656.50Q195 614 154 537Q113 460 113 357Q113 254 154 177Q195 100 270 57.50Q345 15 447 15M252 138L252 576L524 576Q595 576 629.50 536.50Q664 497 664 438Q664 388 638.50 351.50Q613 315 564 305L670 138L549 138L450 301L351 301L351 138L252 138M351 382L500 382Q532 382 545 395.50Q558 409 558 438Q558 468 545 481.50Q532 495 500 495L351 495L351 382Z"  horiz-adv-x="894" vert-adv-y="1000"  />

      
      <glyph glyph-name="unia9" unicode="&#xa9;" d="M447-60Q357-60 280.50-27.50Q204 5 148 62Q92 119 61 194.50Q30 270 30 357Q30 444 61 519.50Q92 595 148 652Q204 709 280.50 741.50Q357 774 447 774Q537 774 613.50 741.50Q690 709 746 652Q802 595 833 519.50Q864 444 864 357Q864 270 833 194.50Q802 119 746 62Q690 5 613.50-27.50Q537-60 447-60M447 15Q550 15 624.50 57.50Q699 100 740 177Q781 254 781 357Q781 460 740 537Q699 614 624.50 656.50Q550 699 447 699Q345 699 270 656.50Q195 614 154 537Q113 460 113 357Q113 254 154 177Q195 100 270 57.50Q345 15 447 15M455 138Q347 138 287 197.50Q227 257 227 357Q227 456 287 516Q347 576 455 576L619 576L619 495L464 495Q398 495 365.50 459Q333 423 333 357Q333 291 365.50 254.50Q398 218 464 218L619 218L619 138L455 138Z"  horiz-adv-x="894" vert-adv-y="1000"  />

      
      <glyph glyph-name="uni2122" unicode="&#x2122;" d="M647 312L647 713L747 713L917 633L1086 713L1186 713L1186 312L1086 312L1086 618L966 561L966 385L867 385L867 561L747 618L747 312L647 312M276 312L276 631L160 631L160 476L60 476L60 713L592 713L592 476L492 476L492 631L376 631L376 312L276 312Z"  horiz-adv-x="1246" vert-adv-y="1000"  />

      
      <glyph glyph-name="unib1" unicode="&#xb1;" d="M269 160L269 324L40 324L40 439L269 439L269 582L394 582L394 439L622 439L622 324L394 324L394 160L269 160M40 0L40 115L622 115L622 0L40 0Z"  horiz-adv-x="662" vert-adv-y="1000"  />

      
      <glyph glyph-name="unia5" unicode="&#xa5;" d="M98 126L98 236L379 236L379 255L312 336L98 336L98 446L222 446L0 715L198 715L459 391L719 715L917 715L696 446L838 446L838 336L606 336L540 256L540 236L838 236L838 126L540 126L540 0L379 0L379 126L98 126Z"  horiz-adv-x="917" vert-adv-y="1000"  />

      
      <glyph glyph-name="uni2026" unicode="&#x2026;" d="M60 0L60 143L220 143L220 0L60 0M380 0L380 143L540 143L540 0L380 0M700 0L700 143L860 143L860 0L700 0Z"  horiz-adv-x="922" vert-adv-y="1000"  />

      
      <glyph glyph-name="uni2013" unicode="&#x2013;" d="M0 199L0 315L618 315L618 199L0 199Z"  horiz-adv-x="618" vert-adv-y="1000"  />

      
      <glyph glyph-name="uni2014" unicode="&#x2014;" d="M0 199L0 315L838 315L838 199L0 199Z"  horiz-adv-x="838" vert-adv-y="1000"  />

      
      <glyph glyph-name="uni201C" unicode="&#x201C;" d="M151 713L151 562L222 562L222 419L60 419L60 713L151 713M381 713L381 562L452 562L452 419L290 419L290 713L381 713Z"  horiz-adv-x="492" vert-adv-y="1000"  />

      
      <glyph glyph-name="uni201D" unicode="&#x201D;" d="M341 419L341 570L270 570L270 713L432 713L432 419L341 419M111 419L111 570L40 570L40 713L202 713L202 419L111 419Z"  horiz-adv-x="492" vert-adv-y="1000"  />

      
      <glyph glyph-name="uni2018" unicode="&#x2018;" d="M60 419L60 713L151 713L151 562L222 562L222 419L60 419Z"  horiz-adv-x="262" vert-adv-y="1000"  />

      
      <glyph glyph-name="uni2019" unicode="&#x2019;" d="M111 419L111 570L40 570L40 713L202 713L202 419L111 419Z"  horiz-adv-x="262" vert-adv-y="1000"  />

      
      <glyph glyph-name="unif7" unicode="&#xf7;" d="M331 388Q291 388 262.50 416.50Q234 445 234 485Q234 526 262.50 554Q291 582 331 582Q372 582 400 554Q428 526 428 485Q428 445 400 416.50Q372 388 331 388M40 234L40 349L622 349L622 234L40 234M331 1Q291 1 262.50 29.50Q234 58 234 98Q234 139 262.50 167Q291 195 331 195Q372 195 400 167Q428 139 428 98Q428 58 400 29.50Q372 1 331 1Z"  horiz-adv-x="662" vert-adv-y="1000"  />

      
      <glyph glyph-name="unic6" unicode="&#xc6;" d="M10 0L432 715L1405 715L1405 585L831 585L831 427L1347 427L1347 297L831 297L831 130L1405 130L1405 0L671 0L671 151L278 151L186 0L10 0M357 281L671 281L671 585L542 585L357 281Z"  horiz-adv-x="1445" vert-adv-y="1000"  />

      
      <glyph glyph-name="unic1" unicode="&#xc1;" d="M10 0L332 715L579 715L901 0L727 0L659 151L252 151L184 0L10 0M310 281L601 281L462 590L449 590L310 281M534 750L786 900L589 900L374 750L534 750Z"  horiz-adv-x="911" vert-adv-y="1000"  />

      
      <glyph glyph-name="unic2" unicode="&#xc2;" d="M10 0L332 715L579 715L901 0L727 0L659 151L252 151L184 0L10 0M310 281L601 281L462 590L449 590L310 281M148 750L358 900L553 900L763 750L608 750L457 841L313 750L148 750Z"  horiz-adv-x="911" vert-adv-y="1000"  />

      
      <glyph glyph-name="unic4" unicode="&#xc4;" d="M10 0L332 715L579 715L901 0L727 0L659 151L252 151L184 0L10 0M310 281L601 281L462 590L449 590L310 281M192 768L192 881L389 881L389 768L192 768M522 768L522 881L719 881L719 768L522 768Z"  horiz-adv-x="911" vert-adv-y="1000"  />

      
      <glyph glyph-name="unic0" unicode="&#xc0;" d="M10 0L332 715L579 715L901 0L727 0L659 151L252 151L184 0L10 0M310 281L601 281L462 590L449 590L310 281M376 750L124 900L321 900L536 750L376 750Z"  horiz-adv-x="911" vert-adv-y="1000"  />

      
      <glyph glyph-name="unic5" unicode="&#xc5;" d="M10 0L332 715L579 715L901 0L727 0L659 151L252 151L184 0L10 0M310 281L601 281L462 590L449 590L310 281M366 750Q311 750 283 778.50Q255 807 255 856Q255 903 283 931.50Q311 960 366 960L546 960Q603 960 630 931.50Q657 903 657 856Q657 807 630 778.50Q603 750 546 750L366 750M403 824L509 824Q532 824 540.50 833Q549 842 549 856Q549 869 540.50 877.50Q532 886 509 886L403 886Q381 886 372 877.50Q363 869 363 856Q363 842 372 833Q381 824 403 824Z"  horiz-adv-x="911" vert-adv-y="1000"  />

      
      <glyph glyph-name="unic3" unicode="&#xc3;" d="M10 0L332 715L579 715L901 0L727 0L659 151L252 151L184 0L10 0M310 281L601 281L462 590L449 590L310 281M573 755Q553 755 532 759Q511 763 479 775L406 802Q387 810 374 812.50Q361 815 349 815Q324 815 309 804Q294 793 286 770L183 770Q203 847 237.50 881Q272 915 338 915Q358 915 379 911Q400 907 432 895L505 868Q525 861 537.50 858Q550 855 562 855Q588 855 602.50 866Q617 877 625 900L728 900Q709 823 674 789Q639 755 573 755Z"  horiz-adv-x="911" vert-adv-y="1000"  />

      
      <glyph glyph-name="unic7" unicode="&#xc7;" d="M438-5Q240-5 135 86.50Q30 178 30 358Q30 537 135 629Q240 721 438 720L798 718L798 590L449 590Q319 590 256 535Q193 480 193 358Q193 236 256 180.50Q319 125 449 125L808 125L808-5L438-5M402-225L402-157L529-157Q552-157 552-136Q552-114 529-114L425-114L425-52L486 18L550 0L505-52L553-52Q592-52 614-72.50Q636-93 636-139Q636-182 614-203.50Q592-225 553-225L402-225Z"  horiz-adv-x="838" vert-adv-y="1000"  />

      
      <glyph glyph-name="unic9" unicode="&#xc9;" d="M70 0L70 715L854 715L854 585L230 585L230 427L796 427L796 297L230 297L230 130L854 130L854 0L70 0M540 750L792 900L595 900L380 750L540 750Z"  horiz-adv-x="894" vert-adv-y="1000"  />

      
      <glyph glyph-name="unica" unicode="&#xca;" d="M70 0L70 715L854 715L854 585L230 585L230 427L796 427L796 297L230 297L230 130L854 130L854 0L70 0M154 750L364 900L559 900L769 750L614 750L463 841L319 750L154 750Z"  horiz-adv-x="894" vert-adv-y="1000"  />

      
      <glyph glyph-name="unicb" unicode="&#xcb;" d="M70 0L70 715L854 715L854 585L230 585L230 427L796 427L796 297L230 297L230 130L854 130L854 0L70 0M198 768L198 881L395 881L395 768L198 768M528 768L528 881L725 881L725 768L528 768Z"  horiz-adv-x="894" vert-adv-y="1000"  />

      
      <glyph glyph-name="unic8" unicode="&#xc8;" d="M70 0L70 715L854 715L854 585L230 585L230 427L796 427L796 297L230 297L230 130L854 130L854 0L70 0M382 750L130 900L327 900L542 750L382 750Z"  horiz-adv-x="894" vert-adv-y="1000"  />

      
      <glyph glyph-name="unid0" unicode="&#xd0;" d="M115 0L115 304L5 304L5 419L115 419L115 715L233 715L553 716Q747 716 854 625Q961 534 961 358Q961 182 854 91Q747 0 553 0L115 0M511 304L275 304L275 130L542 130Q668 130 733 185Q798 240 798 358Q798 477 733 531.50Q668 586 542 586L275 586L275 419L511 419L511 304Z"  horiz-adv-x="981" vert-adv-y="1000"  />

      
      <glyph glyph-name="uni1E9E" unicode="&#x1E9E;" d="M70 0L70 519Q70 611 127.50 662.50Q185 714 288 714L657 714Q767 714 827.50 662.50Q888 611 888 519Q888 472 869 426.50Q850 381 806 362Q868 346 898 302.50Q928 259 928 201Q928 110 867.50 55Q807 0 697 0L305 0L305 129L680 129Q726 129 746 151.50Q766 174 766 212Q766 254 746 276.50Q726 299 680 299L364 299L364 424L635 424Q726 424 726 511Q726 586 635 586L307 586Q268 586 249 564.50Q230 543 230 494L230 0L70 0Z"  horiz-adv-x="968" vert-adv-y="1000"  />

      
      <glyph glyph-name="unicd" unicode="&#xcd;" d="M70 0L70 715L230 715L230 0L70 0M228 750L480 900L283 900L68 750L228 750Z"  horiz-adv-x="300" vert-adv-y="1000"  />

      
      <glyph glyph-name="unice" unicode="&#xce;" d="M70 0L70 715L230 715L230 0L70 0M-158 750L52 900L247 900L457 750L302 750L151 841L7 750L-158 750Z"  horiz-adv-x="300" vert-adv-y="1000"  />

      
      <glyph glyph-name="unicf" unicode="&#xcf;" d="M70 0L70 715L230 715L230 0L70 0M-114 768L-114 881L83 881L83 768L-114 768M216 768L216 881L413 881L413 768L216 768Z"  horiz-adv-x="300" vert-adv-y="1000"  />

      
      <glyph glyph-name="unicc" unicode="&#xcc;" d="M70 0L70 715L230 715L230 0L70 0M70 750L-182 900L15 900L230 750L70 750Z"  horiz-adv-x="300" vert-adv-y="1000"  />

      
      <glyph glyph-name="unid1" unicode="&#xd1;" d="M70 0L70 715L232 715L738 201L738 715L898 715L898 0L736 0L230 515L230 0L70 0M601 755Q581 755 560 759Q539 763 507 775L434 802Q415 810 402 812.50Q389 815 377 815Q352 815 337 804Q322 793 314 770L211 770Q231 847 265.50 881Q300 915 366 915Q386 915 407 911Q428 907 460 895L533 868Q553 861 565.50 858Q578 855 590 855Q616 855 630.50 866Q645 877 653 900L756 900Q737 823 702 789Q667 755 601 755Z"  horiz-adv-x="968" vert-adv-y="1000"  />

      
      <glyph glyph-name="uni0152" unicode="&#x0152;" d="M438 0Q240 0 135 90Q30 180 30 358Q30 535 135 625Q240 715 438 715L1400 715L1400 585L826 585L826 427L1342 427L1342 297L826 297L826 130L1400 130L1400 0L438 0M449 130L666 130L666 585L449 585Q319 585 256 531Q193 477 193 358Q193 238 256 184Q319 130 449 130Z"  horiz-adv-x="1440" vert-adv-y="1000"  />

      
      <glyph glyph-name="unid3" unicode="&#xd3;" d="M431-5Q240-5 135 86.50Q30 178 30 358Q30 537 135 628.50Q240 720 438 720L618 720Q816 720 921 628.50Q1026 537 1026 358Q1026 178 921 86.50Q816-5 623-5L431-5M449 590Q338 590 276 550Q214 510 198 423L858 423Q842 510 780 550Q718 590 607 590L449 590M452 125L607 125Q719 125 780.50 165Q842 205 858 293L198 293Q214 205 276 165Q338 125 452 125M606 750L858 900L661 900L446 750L606 750Z"  horiz-adv-x="1056" vert-adv-y="1000"  />

      
      <glyph glyph-name="unid4" unicode="&#xd4;" d="M431-5Q240-5 135 86.50Q30 178 30 358Q30 537 135 628.50Q240 720 438 720L618 720Q816 720 921 628.50Q1026 537 1026 358Q1026 178 921 86.50Q816-5 623-5L431-5M449 590Q338 590 276 550Q214 510 198 423L858 423Q842 510 780 550Q718 590 607 590L449 590M452 125L607 125Q719 125 780.50 165Q842 205 858 293L198 293Q214 205 276 165Q338 125 452 125M220 750L430 900L625 900L835 750L680 750L529 841L385 750L220 750Z"  horiz-adv-x="1056" vert-adv-y="1000"  />

      
      <glyph glyph-name="unid6" unicode="&#xd6;" d="M431-5Q240-5 135 86.50Q30 178 30 358Q30 537 135 628.50Q240 720 438 720L618 720Q816 720 921 628.50Q1026 537 1026 358Q1026 178 921 86.50Q816-5 623-5L431-5M449 590Q338 590 276 550Q214 510 198 423L858 423Q842 510 780 550Q718 590 607 590L449 590M452 125L607 125Q719 125 780.50 165Q842 205 858 293L198 293Q214 205 276 165Q338 125 452 125M264 768L264 881L461 881L461 768L264 768M594 768L594 881L791 881L791 768L594 768Z"  horiz-adv-x="1056" vert-adv-y="1000"  />

      
      <glyph glyph-name="unid2" unicode="&#xd2;" d="M431-5Q240-5 135 86.50Q30 178 30 358Q30 537 135 628.50Q240 720 438 720L618 720Q816 720 921 628.50Q1026 537 1026 358Q1026 178 921 86.50Q816-5 623-5L431-5M449 590Q338 590 276 550Q214 510 198 423L858 423Q842 510 780 550Q718 590 607 590L449 590M452 125L607 125Q719 125 780.50 165Q842 205 858 293L198 293Q214 205 276 165Q338 125 452 125M448 750L196 900L393 900L608 750L448 750Z"  horiz-adv-x="1056" vert-adv-y="1000"  />

      
      <glyph glyph-name="unid8" unicode="&#xd8;" d="M58-58L168 61Q101 106 65.50 180Q30 254 30 358Q30 537 135 628.50Q240 720 438 720L618 720Q699 720 764 705L828 774L997 774L887 655Q1026 564 1026 358Q1026 178 921 86.50Q816-5 623-5L431-5Q354-5 290 10L227-58L58-58M193 358Q193 225 269 170L656 588Q633 590 607 590L449 590Q319 590 256 535Q193 480 193 358M452 125L607 125Q738 125 800.50 180.50Q863 236 863 358Q863 491 786 546L399 127Q424 125 452 125Z"  horiz-adv-x="1056" vert-adv-y="1000"  />

      
      <glyph glyph-name="unid5" unicode="&#xd5;" d="M431-5Q240-5 135 86.50Q30 178 30 358Q30 537 135 628.50Q240 720 438 720L618 720Q816 720 921 628.50Q1026 537 1026 358Q1026 178 921 86.50Q816-5 623-5L431-5M449 590Q338 590 276 550Q214 510 198 423L858 423Q842 510 780 550Q718 590 607 590L449 590M452 125L607 125Q719 125 780.50 165Q842 205 858 293L198 293Q214 205 276 165Q338 125 452 125M645 755Q625 755 604 759Q583 763 551 775L478 802Q459 810 446 812.50Q433 815 421 815Q396 815 381 804Q366 793 358 770L255 770Q275 847 309.50 881Q344 915 410 915Q430 915 451 911Q472 907 504 895L577 868Q597 861 609.50 858Q622 855 634 855Q660 855 674.50 866Q689 877 697 900L800 900Q781 823 746 789Q711 755 645 755Z"  horiz-adv-x="1056" vert-adv-y="1000"  />

      
      <glyph glyph-name="unide" unicode="&#xde;" d="M70 0L70 715L230 715L230 605L669 605Q780 605 841.50 549Q903 493 903 379Q903 265 841.50 209Q780 153 669 153L230 153L230 0L70 0M650 475L230 475L230 284L650 283Q694 283 717.50 305Q741 327 741 379Q741 432 717.50 453.50Q694 475 650 475Z"  horiz-adv-x="933" vert-adv-y="1000"  />

      
      <glyph glyph-name="unida" unicode="&#xda;" d="M359-5Q250-5 187 23.50Q124 52 97 110Q70 168 70 256L70 715L230 715L230 256Q230 180 265.50 152.50Q301 125 386 125L579 125Q664 125 699.50 152.50Q735 180 735 256L735 715L895 715L895 256Q895 168 868 110Q841 52 778 23.50Q715-5 606-5L359-5M561 750L813 900L616 900L401 750L561 750Z"  horiz-adv-x="965" vert-adv-y="1000"  />

      
      <glyph glyph-name="unidb" unicode="&#xdb;" d="M359-5Q250-5 187 23.50Q124 52 97 110Q70 168 70 256L70 715L230 715L230 256Q230 180 265.50 152.50Q301 125 386 125L579 125Q664 125 699.50 152.50Q735 180 735 256L735 715L895 715L895 256Q895 168 868 110Q841 52 778 23.50Q715-5 606-5L359-5M175 750L385 900L580 900L790 750L635 750L484 841L340 750L175 750Z"  horiz-adv-x="965" vert-adv-y="1000"  />

      
      <glyph glyph-name="unidc" unicode="&#xdc;" d="M359-5Q250-5 187 23.50Q124 52 97 110Q70 168 70 256L70 715L230 715L230 256Q230 180 265.50 152.50Q301 125 386 125L579 125Q664 125 699.50 152.50Q735 180 735 256L735 715L895 715L895 256Q895 168 868 110Q841 52 778 23.50Q715-5 606-5L359-5M219 768L219 881L416 881L416 768L219 768M549 768L549 881L746 881L746 768L549 768Z"  horiz-adv-x="965" vert-adv-y="1000"  />

      
      <glyph glyph-name="unid9" unicode="&#xd9;" d="M359-5Q250-5 187 23.50Q124 52 97 110Q70 168 70 256L70 715L230 715L230 256Q230 180 265.50 152.50Q301 125 386 125L579 125Q664 125 699.50 152.50Q735 180 735 256L735 715L895 715L895 256Q895 168 868 110Q841 52 778 23.50Q715-5 606-5L359-5M403 750L151 900L348 900L563 750L403 750Z"  horiz-adv-x="965" vert-adv-y="1000"  />

      
      <glyph glyph-name="uni1E82" unicode="&#x1E82;" d="M130 0L50 715L210 715L269 193L468 346L468 715L628 715L628 345L825 193L885 715L1045 715L965 0L831 0L548 229L264 0L130 0M626 750L878 900L681 900L466 750L626 750Z"  horiz-adv-x="1095" vert-adv-y="1000"  />

      
      <glyph glyph-name="uni0174" unicode="&#x0174;" d="M130 0L50 715L210 715L269 193L468 346L468 715L628 715L628 345L825 193L885 715L1045 715L965 0L831 0L548 229L264 0L130 0M240 750L450 900L645 900L855 750L700 750L549 841L405 750L240 750Z"  horiz-adv-x="1095" vert-adv-y="1000"  />

      
      <glyph glyph-name="uni1E84" unicode="&#x1E84;" d="M130 0L50 715L210 715L269 193L468 346L468 715L628 715L628 345L825 193L885 715L1045 715L965 0L831 0L548 229L264 0L130 0M284 768L284 881L481 881L481 768L284 768M614 768L614 881L811 881L811 768L614 768Z"  horiz-adv-x="1095" vert-adv-y="1000"  />

      
      <glyph glyph-name="uni1E80" unicode="&#x1E80;" d="M130 0L50 715L210 715L269 193L468 346L468 715L628 715L628 345L825 193L885 715L1045 715L965 0L831 0L548 229L264 0L130 0M468 750L216 900L413 900L628 750L468 750Z"  horiz-adv-x="1095" vert-adv-y="1000"  />

      
      <glyph glyph-name="unidd" unicode="&#xdd;" d="M379 0L379 255L0 715L198 715L459 391L719 715L917 715L540 256L540 0L379 0M537 750L789 900L592 900L377 750L537 750Z"  horiz-adv-x="917" vert-adv-y="1000"  />

      
      <glyph glyph-name="uni0176" unicode="&#x0176;" d="M379 0L379 255L0 715L198 715L459 391L719 715L917 715L540 256L540 0L379 0M151 750L361 900L556 900L766 750L611 750L460 841L316 750L151 750Z"  horiz-adv-x="917" vert-adv-y="1000"  />

      
      <glyph glyph-name="uni0178" unicode="&#x0178;" d="M379 0L379 255L0 715L198 715L459 391L719 715L917 715L540 256L540 0L379 0M195 768L195 881L392 881L392 768L195 768M525 768L525 881L722 881L722 768L525 768Z"  horiz-adv-x="917" vert-adv-y="1000"  />

      
      <glyph glyph-name="uni1EF2" unicode="&#x1EF2;" d="M379 0L379 255L0 715L198 715L459 391L719 715L917 715L540 256L540 0L379 0M379 750L127 900L324 900L539 750L379 750Z"  horiz-adv-x="917" vert-adv-y="1000"  />

      
      <glyph glyph-name="unie1" unicode="&#xe1;" d="M192 0Q111 0 68 41Q25 82 25 158Q25 233 68 274Q111 315 192 315L576 315L576 339Q576 400 516 400L92 400L92 515L554 515Q645 515 683 473.50Q721 432 721 357L721 0L192 0M218 115L576 115L576 200L218 200Q199 200 188.50 188.50Q178 177 178 158Q178 139 188.50 127Q199 115 218 115M471 580L683 730L506 730L326 580L471 580Z"  horiz-adv-x="776" vert-adv-y="1000"  />

      
      <glyph glyph-name="unie2" unicode="&#xe2;" d="M192 0Q111 0 68 41Q25 82 25 158Q25 233 68 274Q111 315 192 315L576 315L576 339Q576 400 516 400L92 400L92 515L554 515Q645 515 683 473.50Q721 432 721 357L721 0L192 0M218 115L576 115L576 200L218 200Q199 200 188.50 188.50Q178 177 178 158Q178 139 188.50 127Q199 115 218 115M131 580L310 729L309 730L488 730L487 729L666 580L521 580L399 667L276 580L131 580Z"  horiz-adv-x="776" vert-adv-y="1000"  />

      
      <glyph glyph-name="unib4" unicode="&#xb4;" d="M205 580L417 730L240 730L60 580L205 580Z"  horiz-adv-x="477" vert-adv-y="1000"  />

      
      <glyph glyph-name="uni0301" unicode="&#x0301;" d="M205 580L417 730L240 730L60 580L205 580Z"   vert-adv-y="1000"  />

      
      <glyph glyph-name="unie4" unicode="&#xe4;" d="M192 0Q111 0 68 41Q25 82 25 158Q25 233 68 274Q111 315 192 315L576 315L576 339Q576 400 516 400L92 400L92 515L554 515Q645 515 683 473.50Q721 432 721 357L721 0L192 0M218 115L576 115L576 200L218 200Q199 200 188.50 188.50Q178 177 178 158Q178 139 188.50 127Q199 115 218 115M170 598L170 711L317 711L317 598L170 598M480 598L480 711L627 711L627 598L480 598Z"  horiz-adv-x="776" vert-adv-y="1000"  />

      
      <glyph glyph-name="unie6" unicode="&#xe6;" d="M206 0Q118 0 71.50 40Q25 80 25 155Q25 315 206 315L588 315Q578 360 546 380Q514 400 456 400L91 400L91 515L456 515Q524 515 577 496.50Q630 478 666 429Q702 477 754.50 496Q807 515 874 515L1124 515Q1212 515 1258.50 475Q1305 435 1305 360Q1305 200 1124 200L742 200Q753 155 784.50 135Q816 115 874 115L1279 115L1279 0L874 0Q806 0 753 18.50Q700 37 664 86Q628 38 575.50 19Q523 0 456 0L206 0M874 400Q816 400 784 380Q752 360 742 315L1117 315Q1137 315 1148.50 328Q1160 341 1160 363Q1160 400 1117 400L874 400M213 115L456 115Q514 115 546 135Q578 155 588 200L213 200Q194 200 182 187.50Q170 175 170 152Q170 115 213 115Z"  horiz-adv-x="1340" vert-adv-y="1000"  />

      
      <glyph glyph-name="unie0" unicode="&#xe0;" d="M192 0Q111 0 68 41Q25 82 25 158Q25 233 68 274Q111 315 192 315L576 315L576 339Q576 400 516 400L92 400L92 515L554 515Q645 515 683 473.50Q721 432 721 357L721 0L192 0M218 115L576 115L576 200L218 200Q199 200 188.50 188.50Q178 177 178 158Q178 139 188.50 127Q199 115 218 115M326 580L114 730L291 730L471 580L326 580Z"  horiz-adv-x="776" vert-adv-y="1000"  />

      
      <glyph glyph-name="unie5" unicode="&#xe5;" d="M192 0Q111 0 68 41Q25 82 25 158Q25 233 68 274Q111 315 192 315L576 315L576 339Q576 400 516 400L92 400L92 515L554 515Q645 515 683 473.50Q721 432 721 357L721 0L192 0M218 115L576 115L576 200L218 200Q199 200 188.50 188.50Q178 177 178 158Q178 139 188.50 127Q199 115 218 115M339 560Q284 560 256 586Q228 612 228 656Q228 699 256 724.50Q284 750 339 750L459 750Q516 750 543 724.50Q570 699 570 656Q570 612 543 586Q516 560 459 560L339 560M376 624L422 624Q445 624 453.50 633Q462 642 462 656Q462 669 453.50 677.50Q445 686 422 686L376 686Q354 686 345 677.50Q336 669 336 656Q336 642 345 633Q354 624 376 624Z"  horiz-adv-x="776" vert-adv-y="1000"  />

      
      <glyph glyph-name="unie3" unicode="&#xe3;" d="M192 0Q111 0 68 41Q25 82 25 158Q25 233 68 274Q111 315 192 315L576 315L576 339Q576 400 516 400L92 400L92 515L554 515Q645 515 683 473.50Q721 432 721 357L721 0L192 0M218 115L576 115L576 200L218 200Q199 200 188.50 188.50Q178 177 178 158Q178 139 188.50 127Q199 115 218 115M498 560Q470 560 445.50 569.50Q421 579 390 596L354 616Q333 627 321 630Q309 633 303 633Q287 633 271 622.50Q255 612 242 580L136 580Q157 642 182.50 674.50Q208 707 237.50 718.50Q267 730 299 730Q328 730 352.50 720.50Q377 711 407 694L443 674Q464 663 476 660Q488 657 494 657Q510 657 526 668Q542 679 555 710L661 710Q641 648 615 615.50Q589 583 560 571.50Q531 560 498 560Z"  horiz-adv-x="776" vert-adv-y="1000"  />

      
      <glyph glyph-name="unia6" unicode="&#xa6;" d="M70 318L70 743L190 743L190 318L70 318M70-193L70 232L190 232L190-193L70-193Z"  horiz-adv-x="260" vert-adv-y="1000"  />

      
      <glyph glyph-name="unie7" unicode="&#xe7;" d="M319-5Q185-5 110 61.50Q35 128 35 257Q35 387 110 453.50Q185 520 319 520L654 520L654 405L319 405Q254 405 219.50 369Q185 333 185 257Q185 182 219.50 146Q254 110 319 110L664 110L664-5L319-5M294-225L294-157L421-157Q444-157 444-136Q444-114 421-114L317-114L317-52L378 18L442 0L397-52L445-52Q484-52 506-72.50Q528-93 528-139Q528-182 506-203.50Q484-225 445-225L294-225Z"  horiz-adv-x="684" vert-adv-y="1000"  />

      
      <glyph glyph-name="unib8" unicode="&#xb8;" d="M60-225L60-157L187-157Q210-157 210-136Q210-114 187-114L83-114L83-52L144 18L208 0L163-52L211-52Q250-52 272-72.50Q294-93 294-139Q294-182 272-203.50Q250-225 211-225L60-225Z"  horiz-adv-x="354" vert-adv-y="1000"  />

      
      <glyph glyph-name="uni0327" unicode="&#x0327;" d="M60-225L60-157L187-157Q210-157 210-136Q210-114 187-114L83-114L83-52L144 18L208 0L163-52L211-52Q250-52 272-72.50Q294-93 294-139Q294-182 272-203.50Q250-225 211-225L60-225Z"   vert-adv-y="1000"  />

      
      <glyph glyph-name="uni02C6" unicode="&#x02C6;" d="M60 580L239 729L238 730L417 730L416 729L595 580L450 580L328 667L205 580L60 580Z"  horiz-adv-x="655" vert-adv-y="1000"  />

      
      <glyph glyph-name="uni0302" unicode="&#x0302;" d="M60 580L239 729L238 730L417 730L416 729L595 580L450 580L328 667L205 580L60 580Z"   vert-adv-y="1000"  />

      
      <glyph glyph-name="unia4" unicode="&#xa4;" d="M111 25L30 106L167 242Q136 295 136 357Q136 418 167 471L30 607L111 688L248 552Q273 567 302.50 575.50Q332 584 364 584Q396 584 425 575.50Q454 567 480 552L616 688L697 607L560 471Q591 418 591 357Q591 326 583 297Q575 268 560 242L697 106L616 25L480 161Q454 146 425 137.50Q396 129 364 129Q332 129 302.50 137.50Q273 146 248 161L111 25M364 260Q404 260 432 288.50Q460 317 460 357Q460 397 432 425Q404 453 364 453Q324 453 295.50 425Q267 397 267 357Q267 317 295.50 288.50Q324 260 364 260Z"  horiz-adv-x="727" vert-adv-y="1000"  />

      
      <glyph glyph-name="unib0" unicode="&#xb0;" d="M228 344Q176 344 133.50 367Q91 390 65.50 432.50Q40 475 40 532Q40 589 65.50 631.50Q91 674 133.50 697Q176 720 228 720Q280 720 322.50 697Q365 674 390.50 631.50Q416 589 416 532Q416 475 390.50 432.50Q365 390 322.50 367Q280 344 228 344M228 452Q261 452 284.50 474Q308 496 308 532Q308 568 284.50 590Q261 612 228 612Q195 612 171.50 590Q148 568 148 532Q148 496 171.50 474Q195 452 228 452Z"  horiz-adv-x="456" vert-adv-y="1000"  />

      
      <glyph glyph-name="unia8" unicode="&#xa8;" d="M60 598L60 711L207 711L207 598L60 598M370 598L370 711L517 711L517 598L370 598Z"  horiz-adv-x="577" vert-adv-y="1000"  />

      
      <glyph glyph-name="uni0308" unicode="&#x0308;" d="M60 598L60 711L207 711L207 598L60 598M370 598L370 711L517 711L517 598L370 598Z"   vert-adv-y="1000"  />

      
      <glyph glyph-name="uni2215" unicode="&#x2215;" d="M5 0L364 715L493 715L134 0L5 0Z"  horiz-adv-x="498" vert-adv-y="1000"  />

      
      <glyph glyph-name="uni0307" unicode="&#x0307;" d="M60 600L60 713L207 713L207 600L60 600Z"   vert-adv-y="1000"  />

      
      <glyph glyph-name="unie9" unicode="&#xe9;" d="M319-5Q185-5 110 61.50Q35 128 35 257Q35 387 110 453.50Q185 520 319 520L569 520Q657 520 703.50 478.50Q750 437 750 360Q750 203 569 203L191 203Q212 110 319 110L724 110L724-5L319-5M319 405Q216 405 192 318L562 318Q582 318 593.50 330Q605 342 605 363Q605 405 562 405L319 405M484 580L696 730L519 730L339 580L484 580Z"  horiz-adv-x="785" vert-adv-y="1000"  />

      
      <glyph glyph-name="uniea" unicode="&#xea;" d="M319-5Q185-5 110 61.50Q35 128 35 257Q35 387 110 453.50Q185 520 319 520L569 520Q657 520 703.50 478.50Q750 437 750 360Q750 203 569 203L191 203Q212 110 319 110L724 110L724-5L319-5M319 405Q216 405 192 318L562 318Q582 318 593.50 330Q605 342 605 363Q605 405 562 405L319 405M144 580L323 729L322 730L501 730L500 729L679 580L534 580L412 667L289 580L144 580Z"  horiz-adv-x="785" vert-adv-y="1000"  />

      
      <glyph glyph-name="unieb" unicode="&#xeb;" d="M319-5Q185-5 110 61.50Q35 128 35 257Q35 387 110 453.50Q185 520 319 520L569 520Q657 520 703.50 478.50Q750 437 750 360Q750 203 569 203L191 203Q212 110 319 110L724 110L724-5L319-5M319 405Q216 405 192 318L562 318Q582 318 593.50 330Q605 342 605 363Q605 405 562 405L319 405M183 598L183 711L330 711L330 598L183 598M493 598L493 711L640 711L640 598L493 598Z"  horiz-adv-x="785" vert-adv-y="1000"  />

      
      <glyph glyph-name="unie8" unicode="&#xe8;" d="M319-5Q185-5 110 61.50Q35 128 35 257Q35 387 110 453.50Q185 520 319 520L569 520Q657 520 703.50 478.50Q750 437 750 360Q750 203 569 203L191 203Q212 110 319 110L724 110L724-5L319-5M319 405Q216 405 192 318L562 318Q582 318 593.50 330Q605 342 605 363Q605 405 562 405L319 405M339 580L127 730L304 730L484 580L339 580Z"  horiz-adv-x="785" vert-adv-y="1000"  />

      
      <glyph glyph-name="unif0" unicode="&#xf0;" d="M319-5Q186-5 110.50 50Q35 105 35 217Q35 329 110.50 384.50Q186 440 319 440L504 440Q598 440 648 401Q635 442 608.50 470Q582 498 536 518.50Q490 539 418 558L237 465L237 560L297 591L133 635L133 765L447 681Q455 679 463 677L625 760L625 665L574 639Q686 591 740 514.50Q794 438 794 308Q794 154 720.50 74.50Q647-5 504-5L319-5M319 110L510 110Q574 110 609 138Q644 166 644 217Q644 268 608.50 296.50Q573 325 508 325L319 325Q256 325 220.50 300.50Q185 276 185 217Q185 159 220 134.50Q255 110 319 110Z"  horiz-adv-x="829" vert-adv-y="1000"  />

      
      <glyph glyph-name="uni20AC" unicode="&#x20AC;" d="M0 196L0 306L114 306Q112 331 112 358Q112 367 112 376L0 376L0 486L129 486Q162 603 261.50 662Q361 721 520 720L780 718L780 590L531 590Q442 590 385 565Q328 540 301 486L640 486L640 376L275 376Q275 367 275 358Q275 330 278 306L640 306L640 196L323 196Q383 125 531 125L790 125L790-5L520-5Q373-5 277 45.50Q181 96 140 196L0 196Z"  horiz-adv-x="820" vert-adv-y="1000"  />

      
      <glyph glyph-name="unia1" unicode="&#xa1;" d="M190 352L190-150L30-150L30 352L190 352M190 563L190 420L30 420L30 563L190 563Z"  horiz-adv-x="260" vert-adv-y="1000"  />

      
      <glyph glyph-name="uni2074" unicode="&#x2074;" d="M10 369L10 447L233 714L359 714L141 456L346 456L346 543L448 543L448 456L542 456L542 369L448 369L448 292L346 292L346 369L10 369Z"  horiz-adv-x="557" vert-adv-y="1000"  />

      
      <glyph glyph-name="uni2044" unicode="&#x2044;" d="M554 525L756 715L907 715L705 525L554 525M0 0L202 190L353 190L151 0L0 0Z"  horiz-adv-x="907" vert-adv-y="1000"  />

      
      <glyph glyph-name="unidf" unicode="&#xdf;" d="M70 0L70 519Q70 611 127.50 662.50Q185 714 288 714L577 714Q681 714 738.50 662.50Q796 611 796 519Q796 470 777.50 426Q759 382 716 360Q774 338 795 295Q816 252 816 201Q816 110 758.50 55Q701 0 597 0L300 0L300 115L580 115Q626 115 646 141Q666 167 666 212Q666 256 646 279.50Q626 303 580 303L354 303L354 418L559 418Q606 418 626 442Q646 466 646 511Q646 556 626 577.50Q606 599 559 599L292 599Q253 599 234 576.50Q215 554 215 504L215 0L70 0Z"  horiz-adv-x="856" vert-adv-y="1000"  />

      
      <glyph glyph-name="uni0300" unicode="&#x0300;" d="M272 580L60 730L237 730L417 580L272 580Z"   vert-adv-y="1000"  />

      
      <glyph glyph-name="uniab" unicode="&#xab;" d="M317 0L40 234L40 349L317 582L317 425L157 291L317 157L317 0M617 0L340 234L340 349L617 582L617 425L457 291L617 157L617 0Z"  horiz-adv-x="657" vert-adv-y="1000"  />

      
      <glyph glyph-name="unibb" unicode="&#xbb;" d="M340 0L617 234L617 349L340 582L340 425L500 291L340 157L340 0M40 0L317 234L317 349L40 582L40 425L200 291L40 157L40 0Z"  horiz-adv-x="657" vert-adv-y="1000"  />

      
      <glyph glyph-name="uni2039" unicode="&#x2039;" d="M317 0L40 234L40 349L317 582L317 425L157 291L317 157L317 0Z"  horiz-adv-x="357" vert-adv-y="1000"  />

      
      <glyph glyph-name="uni203A" unicode="&#x203A;" d="M40 0L317 234L317 349L40 582L40 425L200 291L40 157L40 0Z"  horiz-adv-x="357" vert-adv-y="1000"  />

      
      <glyph glyph-name="unied" unicode="&#xed;" d="M55 0L55 515L200 515L200 0L55 0M200 580L412 730L235 730L55 580L200 580Z"  horiz-adv-x="255" vert-adv-y="1000"  />

      
      <glyph glyph-name="uniee" unicode="&#xee;" d="M55 0L55 515L200 515L200 0L55 0M-140 580L39 729L38 730L217 730L216 729L395 580L250 580L128 667L5 580L-140 580Z"  horiz-adv-x="255" vert-adv-y="1000"  />

      
      <glyph glyph-name="unief" unicode="&#xef;" d="M55 0L55 515L200 515L200 0L55 0M-101 598L-101 711L46 711L46 598L-101 598M209 598L209 711L356 711L356 598L209 598Z"  horiz-adv-x="255" vert-adv-y="1000"  />

      
      <glyph glyph-name="uni0131" unicode="&#x0131;" d="M55 0L55 515L200 515L200 0L55 0Z"  horiz-adv-x="255" vert-adv-y="1000"  />

      
      <glyph glyph-name="uniec" unicode="&#xec;" d="M55 0L55 515L200 515L200 0L55 0M55 580L-157 730L20 730L200 580L55 580Z"  horiz-adv-x="255" vert-adv-y="1000"  />

      
      <glyph glyph-name="uni0237" unicode="&#x0237;" d="M51-225L51 515L196 515L196-225L51-225Z"  horiz-adv-x="247" vert-adv-y="1000"  />

      
      <glyph glyph-name="uniac" unicode="&#xac;" d="M40 234L40 349L622 349L622 0L497 0L497 234L40 234Z"  horiz-adv-x="692" vert-adv-y="1000"  />

      
      <glyph glyph-name="uniaf" unicode="&#xaf;" d="M40 580L40 685L503 685L503 580L40 580Z"  horiz-adv-x="543" vert-adv-y="1000"  />

      
      <glyph glyph-name="unib5" unicode="&#xb5;" d="M224 0Q212 0 200 1L200-225L55-225L55 515L200 515L200 175Q200 115 260 115L468 115Q528 115 528 175L528 515L673 515L673 158Q673 88 632.50 44Q592 0 504 0L224 0Z"  horiz-adv-x="723" vert-adv-y="1000"  />

      
      <glyph glyph-name="uni2212" unicode="&#x2212;" d="M40 234L40 349L622 349L622 234L40 234Z"  horiz-adv-x="662" vert-adv-y="1000"  />

      
      <glyph glyph-name="unid7" unicode="&#xd7;" d="M454.74-11.82L536.06 69.49L697.98-92.43L862.74 72.32L951.12-16.07L786.37-180.82L947.59-342.04L866.27-423.35L705.05-262.13L539.59-427.59L451.21-339.21L616.67-173.75L454.74-11.82Z"  horiz-adv-x="580" vert-adv-y="1000"  />

      
      <glyph glyph-name="unif1" unicode="&#xf1;" d="M55 0L55 515L504 515Q592 515 632.50 471.50Q673 428 673 357L673 0L528 0L528 340Q528 400 468 400L200 400L200 0L55 0M463 560Q435 560 410.50 569.50Q386 579 355 596L319 616Q298 627 286 630Q274 633 268 633Q252 633 236 622.50Q220 612 207 580L101 580Q122 642 147.50 674.50Q173 707 202.50 718.50Q232 730 264 730Q293 730 317.50 720.50Q342 711 372 694L408 674Q429 663 441 660Q453 657 459 657Q475 657 491 668Q507 679 520 710L626 710Q606 648 580 615.50Q554 583 525 571.50Q496 560 463 560Z"  horiz-adv-x="723" vert-adv-y="1000"  />

      
      <glyph glyph-name="unif3" unicode="&#xf3;" d="M319-5Q185-5 110 61.50Q35 128 35 257Q35 387 110 453.50Q185 520 319 520L504 520Q638 520 713 453.50Q788 387 788 257Q788 128 713 61.50Q638-5 504-5L319-5M319 110L504 110Q569 110 603.50 146Q638 182 638 257Q638 333 603.50 369Q569 405 504 405L319 405Q254 405 219.50 369Q185 333 185 257Q185 182 219.50 146Q254 110 319 110M484 580L696 730L519 730L339 580L484 580Z"  horiz-adv-x="823" vert-adv-y="1000"  />

      
      <glyph glyph-name="unif4" unicode="&#xf4;" d="M319-5Q185-5 110 61.50Q35 128 35 257Q35 387 110 453.50Q185 520 319 520L504 520Q638 520 713 453.50Q788 387 788 257Q788 128 713 61.50Q638-5 504-5L319-5M319 110L504 110Q569 110 603.50 146Q638 182 638 257Q638 333 603.50 369Q569 405 504 405L319 405Q254 405 219.50 369Q185 333 185 257Q185 182 219.50 146Q254 110 319 110M144 580L323 729L322 730L501 730L500 729L679 580L534 580L412 667L289 580L144 580Z"  horiz-adv-x="823" vert-adv-y="1000"  />

      
      <glyph glyph-name="unif6" unicode="&#xf6;" d="M319-5Q185-5 110 61.50Q35 128 35 257Q35 387 110 453.50Q185 520 319 520L504 520Q638 520 713 453.50Q788 387 788 257Q788 128 713 61.50Q638-5 504-5L319-5M319 110L504 110Q569 110 603.50 146Q638 182 638 257Q638 333 603.50 369Q569 405 504 405L319 405Q254 405 219.50 369Q185 333 185 257Q185 182 219.50 146Q254 110 319 110M183 598L183 711L330 711L330 598L183 598M493 598L493 711L640 711L640 598L493 598Z"  horiz-adv-x="823" vert-adv-y="1000"  />

      
      <glyph glyph-name="uni0153" unicode="&#x0153;" d="M319-5Q185-5 110 61.50Q35 128 35 257Q35 387 110 453.50Q185 520 319 520L504 520Q571 520 623.50 501.50Q676 483 713 440Q750 483 802.50 501.50Q855 520 922 520L1172 520Q1260 520 1306.50 478.50Q1353 437 1353 360Q1353 203 1172 203L794 203Q815 110 922 110L1327 110L1327-5L922-5Q855-5 802 13.50Q749 32 713 74Q677 32 624 13.50Q571-5 504-5L319-5M922 405Q819 405 795 318L1165 318Q1185 318 1196.50 330Q1208 342 1208 363Q1208 405 1165 405L922 405M319 110L504 110Q569 110 603.50 146Q638 182 638 257Q638 333 603.50 369Q569 405 504 405L319 405Q254 405 219.50 369Q185 333 185 257Q185 182 219.50 146Q254 110 319 110Z"  horiz-adv-x="1388" vert-adv-y="1000"  />

      
      <glyph glyph-name="unif2" unicode="&#xf2;" d="M319-5Q185-5 110 61.50Q35 128 35 257Q35 387 110 453.50Q185 520 319 520L504 520Q638 520 713 453.50Q788 387 788 257Q788 128 713 61.50Q638-5 504-5L319-5M319 110L504 110Q569 110 603.50 146Q638 182 638 257Q638 333 603.50 369Q569 405 504 405L319 405Q254 405 219.50 369Q185 333 185 257Q185 182 219.50 146Q254 110 319 110M339 580L127 730L304 730L484 580L339 580Z"  horiz-adv-x="823" vert-adv-y="1000"  />

      
      <glyph glyph-name="unibd" unicode="&#xbd;" d="M629 525L831 715L982 715L780 525L629 525M75 0L277 190L428 190L226 0L75 0M551 0L551 125Q551 187 584 220.50Q617 254 681 254L875 254Q896 254 908.50 266Q921 278 921 297Q921 313 908.50 324Q896 335 875 335L561 335L561 422L894 422Q955 422 989 389Q1023 356 1023 297Q1023 236 989 202Q955 168 894 168L714 168Q663 168 663 119L663 86L1012 86L1012 0L551 0M70 292L70 378L230 378L230 628L74 628L74 715L332 715L332 378L492 378L492 292L70 292Z"  horiz-adv-x="1093" vert-adv-y="1000"  />

      
      <glyph glyph-name="unibc" unicode="&#xbc;" d="M629 525L831 715L982 715L780 525L629 525M75 0L277 190L428 190L226 0L75 0M491 77L491 155L714 422L840 422L622 164L827 164L827 251L929 251L929 164L1023 164L1023 77L929 77L929 0L827 0L827 77L491 77M70 292L70 378L230 378L230 628L74 628L74 715L332 715L332 378L492 378L492 292L70 292Z"  horiz-adv-x="1083" vert-adv-y="1000"  />

      
      <glyph glyph-name="unib9" unicode="&#xb9;" d="M45 292L45 378L205 378L205 628L49 628L49 715L307 715L307 378L467 378L467 292L45 292Z"  horiz-adv-x="487" vert-adv-y="1000"  />

      
      <glyph glyph-name="uniaa" unicode="&#xaa;" d="M177 292Q111 292 75.50 326Q40 360 40 424Q40 489 75.50 525Q111 561 177 561L483 561Q483 610 433 610L95 610L95 715L475 715Q549 715 580 681Q611 647 611 586L611 292L177 292M208 397L483 397L483 456L208 456Q175 456 175 424Q175 397 208 397Z"  horiz-adv-x="651" vert-adv-y="1000"  />

      
      <glyph glyph-name="uniba" unicode="&#xba;" d="M269 288Q161 288 100.50 343Q40 398 40 504Q40 611 100.50 665.50Q161 720 269 720L418 720Q526 720 586.50 665.50Q647 611 647 504Q647 398 586.50 343Q526 288 418 288L269 288M269 393L418 393Q465 393 489.50 420Q514 447 514 504Q514 561 489.50 588Q465 615 418 615L269 615Q223 615 198 588Q173 561 173 504Q173 447 198 420Q223 393 269 393Z"  horiz-adv-x="687" vert-adv-y="1000"  />

      
      <glyph glyph-name="unif8" unicode="&#xf8;" d="M35-58L131 46Q85 78 60.50 131Q36 184 36 257Q36 387 111 453.50Q186 520 320 520L505 520Q537 520 566 516L620 574L789 574L693 470Q740 438 764.50 384.50Q789 331 789 257Q789 128 714 61.50Q639-5 505-5L320-5Q287-5 257-1L204-58L35-58M186 257Q186 181 222 144L464 405L320 405Q255 405 220.50 369Q186 333 186 257M639 257Q639 335 602 372L360 110L505 110Q570 110 604.50 146Q639 182 639 257Z"  horiz-adv-x="824" vert-adv-y="1000"  />

      
      <glyph glyph-name="unif5" unicode="&#xf5;" d="M319-5Q185-5 110 61.50Q35 128 35 257Q35 387 110 453.50Q185 520 319 520L504 520Q638 520 713 453.50Q788 387 788 257Q788 128 713 61.50Q638-5 504-5L319-5M319 110L504 110Q569 110 603.50 146Q638 182 638 257Q638 333 603.50 369Q569 405 504 405L319 405Q254 405 219.50 369Q185 333 185 257Q185 182 219.50 146Q254 110 319 110M511 560Q483 560 458.50 569.50Q434 579 403 596L367 616Q346 627 334 630Q322 633 316 633Q300 633 284 622.50Q268 612 255 580L149 580Q170 642 195.50 674.50Q221 707 250.50 718.50Q280 730 312 730Q341 730 365.50 720.50Q390 711 420 694L456 674Q477 663 489 660Q501 657 507 657Q523 657 539 668Q555 679 568 710L674 710Q654 648 628 615.50Q602 583 573 571.50Q544 560 511 560Z"  horiz-adv-x="823" vert-adv-y="1000"  />

      
      <glyph glyph-name="unib6" unicode="&#xb6;" d="M264 263Q153 263 91.50 319Q30 375 30 489Q30 603 91.50 659Q153 715 264 715L537 715L537-225L392-225L392 263L264 263M622-225L622 715L767 715L767-225L622-225Z"  horiz-adv-x="837" vert-adv-y="1000"  />

      
      <glyph glyph-name="unib7" unicode="&#xb7;" d="M60 220L60 363L220 363L220 220L60 220Z"  horiz-adv-x="282" vert-adv-y="1000"  />

      
      <glyph glyph-name="unibf" unicode="&#xbf;" d="M665 352L665 142L289 142Q213 142 213 61Q213-20 289-20L665-20L665-150L269-150Q165-150 107.50-92.50Q50-35 50 60Q50 155 107.50 213.50Q165 272 269 272L505 272L505 352L665 352M665 563L665 420L505 420L505 563L665 563Z"  horiz-adv-x="735" vert-adv-y="1000"  />

      
      <glyph glyph-name="uni201E" unicode="&#x201E;" d="M111-151L111 0L40 0L40 143L202 143L202-151L111-151M341-151L341 0L270 0L270 143L432 143L432-151L341-151Z"  horiz-adv-x="492" vert-adv-y="1000"  />

      
      <glyph glyph-name="uni201A" unicode="&#x201A;" d="M111-151L111 0L40 0L40 143L202 143L202-151L111-151Z"  horiz-adv-x="262" vert-adv-y="1000"  />

      
      <glyph glyph-name="uni02DA" unicode="&#x02DA;" d="M171 560Q116 560 88 586Q60 612 60 656Q60 699 88 724.50Q116 750 171 750L291 750Q348 750 375 724.50Q402 699 402 656Q402 612 375 586Q348 560 291 560L171 560M208 624L254 624Q277 624 285.50 633Q294 642 294 656Q294 669 285.50 677.50Q277 686 254 686L208 686Q186 686 177 677.50Q168 669 168 656Q168 642 177 633Q186 624 208 624Z"  horiz-adv-x="462" vert-adv-y="1000"  />

      
      <glyph glyph-name="uni030A" unicode="&#x030A;" d="M171 560Q116 560 88 586Q60 612 60 656Q60 699 88 724.50Q116 750 171 750L291 750Q348 750 375 724.50Q402 699 402 656Q402 612 375 586Q348 560 291 560L171 560M208 624L254 624Q277 624 285.50 633Q294 642 294 656Q294 669 285.50 677.50Q277 686 254 686L208 686Q186 686 177 677.50Q168 669 168 656Q168 642 177 633Q186 624 208 624Z"   vert-adv-y="1000"  />

      
      <glyph glyph-name="unia7" unicode="&#xa7;" d="M47-225L47-96L622-96Q666-96 689.50-76.50Q713-57 713-19Q713 22 689.50 40Q666 58 622 58L274 58Q171 58 110.50 104Q50 150 50 242Q50 282 63.50 317.50Q77 353 111 374Q67 393 48.50 431Q30 469 30 519Q30 618 91.50 669Q153 720 264 720L846 720L846 591L281 591Q238 591 214 574Q190 557 190 519Q190 484 214 465.50Q238 447 281 447L629 447Q733 447 793 401Q853 355 853 263Q853 223 839.50 187.50Q826 152 792 131Q835 111 854 72.50Q873 34 873-19Q873-118 811.50-171.50Q750-225 639-225L47-225M286 187L617 187Q653 187 673 204Q693 221 693 253Q693 285 673 302Q653 319 617 319L286 319Q250 319 230 302Q210 285 210 253Q210 221 230 204Q250 187 286 187Z"  horiz-adv-x="903" vert-adv-y="1000"  />

      
      <glyph glyph-name="uniad" unicode="&#xad;" d="M40 234L40 349L346 349L346 234L40 234Z"  horiz-adv-x="386" vert-adv-y="1000"  />

      
      <glyph glyph-name="unia3" unicode="&#xa3;" d="M34-5L35 111L224 233Q255 253 269.50 264.50Q284 276 289 284.50Q294 293 294 304Q294 319 281.50 329Q269 339 224 359L193 373Q106 412 68 451Q30 490 30 551Q30 631 84 675.50Q138 720 234 720L663 720L663 591L271 591Q225 591 207.50 583.50Q190 576 190 553Q190 537 203 523.50Q216 510 256 492L296 474Q354 448 386.50 427Q419 406 435 386L587 386L587 276L450 276Q442 246 419 220Q396 194 352 163L298 125L726 125L726-5L34-5Z"  horiz-adv-x="756" vert-adv-y="1000"  />

      
      <glyph glyph-name="unife" unicode="&#xfe;" d="M55-225L55 515L425 515Q559 515 634 449Q709 383 709 258Q709 132 634 66Q559 0 425 0L200 0L200-225L55-225M425 400L200 400L200 115L425 115Q490 115 524.50 150.50Q559 186 559 258Q559 329 524.50 364.50Q490 400 425 400M55 0L55 715L200 715L200 0L55 0Z"  horiz-adv-x="744" vert-adv-y="1000"  />

      
      <glyph glyph-name="unibe" unicode="&#xbe;" d="M684 525L886 715L1037 715L835 525L684 525M130 0L332 190L483 190L281 0L130 0M546 77L546 155L769 422L895 422L677 164L882 164L882 251L984 251L984 164L1078 164L1078 77L984 77L984 0L882 0L882 77L546 77M60 292L60 379L376 379Q420 379 420 421Q420 461 376 461L116 461L116 547L375 547Q420 547 420 585Q420 627 375 627L60 627L60 714L403 714Q464 714 498 683.50Q532 653 532 599Q532 528 484 504Q532 481 532 411Q532 356 497.50 324Q463 292 403 292L60 292Z"  horiz-adv-x="1138" vert-adv-y="1000"  />

      
      <glyph glyph-name="unib3" unicode="&#xb3;" d="M20 292L20 379L336 379Q380 379 380 421Q380 461 336 461L76 461L76 547L335 547Q380 547 380 585Q380 627 335 627L20 627L20 714L363 714Q424 714 458 683.50Q492 653 492 599Q492 528 444 504Q492 481 492 411Q492 356 457.50 324Q423 292 363 292L20 292Z"  horiz-adv-x="522" vert-adv-y="1000"  />

      
      <glyph glyph-name="uni02DC" unicode="&#x02DC;" d="M422 560Q394 560 369.50 569.50Q345 579 314 596L278 616Q257 627 245 630Q233 633 227 633Q211 633 195 622.50Q179 612 166 580L60 580Q81 642 106.50 674.50Q132 707 161.50 718.50Q191 730 223 730Q252 730 276.50 720.50Q301 711 331 694L367 674Q388 663 400 660Q412 657 418 657Q434 657 450 668Q466 679 479 710L585 710Q565 648 539 615.50Q513 583 484 571.50Q455 560 422 560Z"  horiz-adv-x="645" vert-adv-y="1000"  />

      
      <glyph glyph-name="uni0303" unicode="&#x0303;" d="M422 560Q394 560 369.50 569.50Q345 579 314 596L278 616Q257 627 245 630Q233 633 227 633Q211 633 195 622.50Q179 612 166 580L60 580Q81 642 106.50 674.50Q132 707 161.50 718.50Q191 730 223 730Q252 730 276.50 720.50Q301 711 331 694L367 674Q388 663 400 660Q412 657 418 657Q434 657 450 668Q466 679 479 710L585 710Q565 648 539 615.50Q513 583 484 571.50Q455 560 422 560Z"   vert-adv-y="1000"  />

      
      <glyph glyph-name="unib2" unicode="&#xb2;" d="M30 292L30 417Q30 479 63 512.50Q96 546 160 546L354 546Q375 546 387.50 558Q400 570 400 589Q400 605 387.50 616Q375 627 354 627L40 627L40 714L373 714Q434 714 468 681Q502 648 502 589Q502 528 468 494Q434 460 373 460L193 460Q142 460 142 411L142 378L491 378L491 292L30 292Z"  horiz-adv-x="532" vert-adv-y="1000"  />

      
      <glyph glyph-name="unifa" unicode="&#xfa;" d="M219 0Q131 0 90.50 44Q50 88 50 158L50 515L195 515L195 175Q195 115 255 115L463 115Q523 115 523 175L523 515L668 515L668 158Q668 88 627.50 44Q587 0 499 0L219 0M431 580L643 730L466 730L286 580L431 580Z"  horiz-adv-x="718" vert-adv-y="1000"  />

      
      <glyph glyph-name="unifb" unicode="&#xfb;" d="M219 0Q131 0 90.50 44Q50 88 50 158L50 515L195 515L195 175Q195 115 255 115L463 115Q523 115 523 175L523 515L668 515L668 158Q668 88 627.50 44Q587 0 499 0L219 0M91 580L270 729L269 730L448 730L447 729L626 580L481 580L359 667L236 580L91 580Z"  horiz-adv-x="718" vert-adv-y="1000"  />

      
      <glyph glyph-name="unifc" unicode="&#xfc;" d="M219 0Q131 0 90.50 44Q50 88 50 158L50 515L195 515L195 175Q195 115 255 115L463 115Q523 115 523 175L523 515L668 515L668 158Q668 88 627.50 44Q587 0 499 0L219 0M130 598L130 711L277 711L277 598L130 598M440 598L440 711L587 711L587 598L440 598Z"  horiz-adv-x="718" vert-adv-y="1000"  />

      
      <glyph glyph-name="unif9" unicode="&#xf9;" d="M219 0Q131 0 90.50 44Q50 88 50 158L50 515L195 515L195 175Q195 115 255 115L463 115Q523 115 523 175L523 515L668 515L668 158Q668 88 627.50 44Q587 0 499 0L219 0M286 580L74 730L251 730L431 580L286 580Z"  horiz-adv-x="718" vert-adv-y="1000"  />

      
      <glyph glyph-name="uni1E83" unicode="&#x1E83;" d="M79 0L30 515L176 515L210 124L365 194L365 515L510 515L510 193L665 124L699 515L845 515L796 0L659 0L437 98L216 0L79 0M510 580L722 730L545 730L365 580L510 580Z"  horiz-adv-x="875" vert-adv-y="1000"  />

      
      <glyph glyph-name="uni0175" unicode="&#x0175;" d="M79 0L30 515L176 515L210 124L365 194L365 515L510 515L510 193L665 124L699 515L845 515L796 0L659 0L437 98L216 0L79 0M170 580L349 729L348 730L527 730L526 729L705 580L560 580L438 667L315 580L170 580Z"  horiz-adv-x="875" vert-adv-y="1000"  />

      
      <glyph glyph-name="uni1E85" unicode="&#x1E85;" d="M79 0L30 515L176 515L210 124L365 194L365 515L510 515L510 193L665 124L699 515L845 515L796 0L659 0L437 98L216 0L79 0M209 598L209 711L356 711L356 598L209 598M519 598L519 711L666 711L666 598L519 598Z"  horiz-adv-x="875" vert-adv-y="1000"  />

      
      <glyph glyph-name="uni1E81" unicode="&#x1E81;" d="M79 0L30 515L176 515L210 124L365 194L365 515L510 515L510 193L665 124L699 515L845 515L796 0L659 0L437 98L216 0L79 0M365 580L153 730L330 730L510 580L365 580Z"  horiz-adv-x="875" vert-adv-y="1000"  />

      
      <glyph glyph-name="unifd" unicode="&#xfd;" d="M171-225L171-110L473-110Q533-110 533-49L533 0L224 0Q136 0 95.50 44Q55 88 55 158L55 515L200 515L200 175Q200 115 260 115L528 115L528 515L678 515L678-67Q678-138 637-181.50Q596-225 509-225L171-225M441 580L653 730L476 730L296 580L441 580Z"  horiz-adv-x="733" vert-adv-y="1000"  />

      
      <glyph glyph-name="uni0177" unicode="&#x0177;" d="M171-225L171-110L473-110Q533-110 533-49L533 0L224 0Q136 0 95.50 44Q55 88 55 158L55 515L200 515L200 175Q200 115 260 115L528 115L528 515L678 515L678-67Q678-138 637-181.50Q596-225 509-225L171-225M101 580L280 729L279 730L458 730L457 729L636 580L491 580L369 667L246 580L101 580Z"  horiz-adv-x="733" vert-adv-y="1000"  />

      
      <glyph glyph-name="uniff" unicode="&#xff;" d="M171-225L171-110L473-110Q533-110 533-49L533 0L224 0Q136 0 95.50 44Q55 88 55 158L55 515L200 515L200 175Q200 115 260 115L528 115L528 515L678 515L678-67Q678-138 637-181.50Q596-225 509-225L171-225M140 598L140 711L287 711L287 598L140 598M450 598L450 711L597 711L597 598L450 598Z"  horiz-adv-x="733" vert-adv-y="1000"  />

      
      <glyph glyph-name="uni1EF3" unicode="&#x1EF3;" d="M171-225L171-110L473-110Q533-110 533-49L533 0L224 0Q136 0 95.50 44Q55 88 55 158L55 515L200 515L200 175Q200 115 260 115L528 115L528 515L678 515L678-67Q678-138 637-181.50Q596-225 509-225L171-225M296 580L84 730L261 730L441 580L296 580Z"  horiz-adv-x="733" vert-adv-y="1000"  />

      

  </font>
</defs>
</svg>
